solid OpenSCAD_Model
  facet normal -1 0 0
    outer loop
      vertex 0 27.8687 33.3979
      vertex 0 8.15 76
      vertex 0 18.9048 54
    endloop
  endfacet
  facet normal -1 0 0
    outer loop
      vertex 0 17.9 57.75
      vertex 0 8.15 76
      vertex 0 17.9 76
    endloop
  endfacet
  facet normal -1 0 0
    outer loop
      vertex 0 17.9411 56.966
      vertex 0 8.15 76
      vertex 0 17.9 57.75
    endloop
  endfacet
  facet normal -1 0 0
    outer loop
      vertex 0 27.8687 33.3979
      vertex 0 18.9048 54
      vertex 0 28.5212 32.8103
    endloop
  endfacet
  facet normal -1 0 0
    outer loop
      vertex 0 18.2671 55.4324
      vertex 0 8.15 76
      vertex 0 17.9411 56.966
    endloop
  endfacet
  facet normal -1 0 0
    outer loop
      vertex 0 28.5212 32.8103
      vertex 0 18.9048 54
      vertex 0 19.8264 52.7315
    endloop
  endfacet
  facet normal -1 0 0
    outer loop
      vertex 0 18.9048 54
      vertex 0 8.15 76
      vertex 0 18.2671 55.4324
    endloop
  endfacet
  facet normal -1 0 0
    outer loop
      vertex 0 20.9916 51.6824
      vertex 0 42.65 2
      vertex 0 19.8264 52.7315
    endloop
  endfacet
  facet normal -1 0 0
    outer loop
      vertex 0 26.9593 50.4139
      vertex 0 42.65 2
      vertex 0 25.4 50.25
    endloop
  endfacet
  facet normal -1 0 0
    outer loop
      vertex 0 42.65 2
      vertex 0 20.9916 51.6824
      vertex 0 22.3495 50.8984
    endloop
  endfacet
  facet normal -1 0 0
    outer loop
      vertex 0 42.65 2
      vertex 0 22.3495 50.8984
      vertex 0 23.8407 50.4139
    endloop
  endfacet
  facet normal -1 0 0
    outer loop
      vertex 0 42.65 2
      vertex 0 23.8407 50.4139
      vertex 0 25.4 50.25
    endloop
  endfacet
  facet normal -1 0 0
    outer loop
      vertex 0 27.0009 4.16826
      vertex 0 42.65 2
      vertex 0 25.4 4
    endloop
  endfacet
  facet normal -1 0 0
    outer loop
      vertex 0 42.65 2
      vertex 0 26.9593 50.4139
      vertex 0 28.4505 50.8984
    endloop
  endfacet
  facet normal -1 0 0
    outer loop
      vertex 0 28.4505 50.8984
      vertex 0 29.8084 51.6824
      vertex 0 42.65 2
    endloop
  endfacet
  facet normal -1 0 0
    outer loop
      vertex 0 29.8084 51.6824
      vertex 0 30.9736 52.7315
      vertex 0 42.65 2
    endloop
  endfacet
  facet normal -1 0 0
    outer loop
      vertex 0 30.9736 52.7315
      vertex 0 31.8952 54
      vertex 0 42.65 2
    endloop
  endfacet
  facet normal -1 0 0
    outer loop
      vertex 0 31.8952 54
      vertex 0 32.5329 55.4324
      vertex 0 42.65 2
    endloop
  endfacet
  facet normal -1 0 0
    outer loop
      vertex 0 32.5329 55.4324
      vertex 0 32.8589 56.966
      vertex 0 42.65 2
    endloop
  endfacet
  facet normal -1 0 0
    outer loop
      vertex 0 32.8589 56.966
      vertex 0 32.8589 57.75
      vertex 0 42.65 2
    endloop
  endfacet
  facet normal -1 0 0
    outer loop
      vertex 0 42.65 2
      vertex 0 32.8589 57.75
      vertex 0 32.9 57.75
    endloop
  endfacet
  facet normal -1 0 0
    outer loop
      vertex 0 32.9 57.75
      vertex 0 32.9 76
      vertex 0 42.65 2
    endloop
  endfacet
  facet normal -1 0 0
    outer loop
      vertex 0 42.65 2
      vertex 0 32.9 76
      vertex 0 42.65 76
    endloop
  endfacet
  facet normal -1 0 0
    outer loop
      vertex 0 8.15 2
      vertex 0 8.15 76
      vertex 0 17.7422 12.5049
    endloop
  endfacet
  facet normal -1 0 0
    outer loop
      vertex 0 8.15 2
      vertex 0 17.7422 12.5049
      vertex 0 17.7422 10.8951
    endloop
  endfacet
  facet normal -1 0 0
    outer loop
      vertex 0 8.15 2
      vertex 0 17.7422 10.8951
      vertex 0 18.0769 9.32057
    endloop
  endfacet
  facet normal -1 0 0
    outer loop
      vertex 0 8.15 2
      vertex 0 18.0769 9.32057
      vertex 0 18.7316 7.85
    endloop
  endfacet
  facet normal -1 0 0
    outer loop
      vertex 0 8.15 2
      vertex 0 18.7316 7.85
      vertex 0 19.6778 6.54769
    endloop
  endfacet
  facet normal -1 0 0
    outer loop
      vertex 0 8.15 2
      vertex 0 19.6778 6.54769
      vertex 0 20.8741 5.47057
    endloop
  endfacet
  facet normal -1 0 0
    outer loop
      vertex 0 8.15 2
      vertex 0 20.8741 5.47057
      vertex 0 22.2681 4.6657
    endloop
  endfacet
  facet normal -1 0 0
    outer loop
      vertex 0 8.15 2
      vertex 0 22.2681 4.6657
      vertex 0 23.7991 4.16826
    endloop
  endfacet
  facet normal -1 0 0
    outer loop
      vertex 0 8.15 2
      vertex 0 23.7991 4.16826
      vertex 0 42.65 2
    endloop
  endfacet
  facet normal -1 0 0
    outer loop
      vertex 0 23.7991 4.16826
      vertex 0 25.4 4
      vertex 0 42.65 2
    endloop
  endfacet
  facet normal -1 0 0
    outer loop
      vertex 0 28.5319 4.6657
      vertex 0 42.65 2
      vertex 0 27.0009 4.16826
    endloop
  endfacet
  facet normal -1 0 0
    outer loop
      vertex 0 29.9259 5.47057
      vertex 0 42.65 2
      vertex 0 28.5319 4.6657
    endloop
  endfacet
  facet normal -1 0 0
    outer loop
      vertex 0 31.1222 6.54769
      vertex 0 42.65 2
      vertex 0 29.9259 5.47057
    endloop
  endfacet
  facet normal -1 0 0
    outer loop
      vertex 0 32.0684 7.85
      vertex 0 42.65 2
      vertex 0 31.1222 6.54769
    endloop
  endfacet
  facet normal -1 0 0
    outer loop
      vertex 0 32.0684 7.85
      vertex 0 32.7231 9.32057
      vertex 0 42.65 2
    endloop
  endfacet
  facet normal -1 0 0
    outer loop
      vertex 0 27.8687 26.6021
      vertex 0 31.1222 16.8523
      vertex 0 27.1083 26.1631
    endloop
  endfacet
  facet normal -1 0 0
    outer loop
      vertex 0 32.7231 9.32057
      vertex 0 33.0578 10.8951
      vertex 0 42.65 2
    endloop
  endfacet
  facet normal -1 0 0
    outer loop
      vertex 0 29.9259 17.9294
      vertex 0 27.1083 26.1631
      vertex 0 31.1222 16.8523
    endloop
  endfacet
  facet normal -1 0 0
    outer loop
      vertex 0 33.0578 10.8951
      vertex 0 33.0578 12.5049
      vertex 0 42.65 2
    endloop
  endfacet
  facet normal -1 0 0
    outer loop
      vertex 0 27.1083 33.8369
      vertex 0 8.15 76
      vertex 0 27.8687 33.3979
    endloop
  endfacet
  facet normal -1 0 0
    outer loop
      vertex 0 33.0578 12.5049
      vertex 0 32.7231 14.0794
      vertex 0 42.65 2
    endloop
  endfacet
  facet normal -1 0 0
    outer loop
      vertex 0 28.5319 18.7343
      vertex 0 26.2732 25.8918
      vertex 0 29.9259 17.9294
    endloop
  endfacet
  facet normal -1 0 0
    outer loop
      vertex 0 27.8687 26.6021
      vertex 0 32.0684 15.55
      vertex 0 31.1222 16.8523
    endloop
  endfacet
  facet normal -1 0 0
    outer loop
      vertex 0 22.2788 32.8103
      vertex 0 8.15 76
      vertex 0 22.9313 33.3979
    endloop
  endfacet
  facet normal -1 0 0
    outer loop
      vertex 0 22.2681 18.7343
      vertex 0 8.15 76
      vertex 0 23.7991 19.2317
    endloop
  endfacet
  facet normal -1 0 0
    outer loop
      vertex 0 20.8741 17.9294
      vertex 0 8.15 76
      vertex 0 22.2681 18.7343
    endloop
  endfacet
  facet normal -1 0 0
    outer loop
      vertex 0 19.6778 16.8523
      vertex 0 8.15 76
      vertex 0 20.8741 17.9294
    endloop
  endfacet
  facet normal -1 0 0
    outer loop
      vertex 0 18.7316 15.55
      vertex 0 8.15 76
      vertex 0 19.6778 16.8523
    endloop
  endfacet
  facet normal -1 0 0
    outer loop
      vertex 0 18.0769 14.0794
      vertex 0 8.15 76
      vertex 0 18.7316 15.55
    endloop
  endfacet
  facet normal -1 0 0
    outer loop
      vertex 0 17.7422 12.5049
      vertex 0 8.15 76
      vertex 0 18.0769 14.0794
    endloop
  endfacet
  facet normal -1 0 0
    outer loop
      vertex 0 21.223 29.561
      vertex 0 8.15 76
      vertex 0 21.223 30.439
    endloop
  endfacet
  facet normal -1 0 0
    outer loop
      vertex 0 21.4056 28.7021
      vertex 0 8.15 76
      vertex 0 21.223 29.561
    endloop
  endfacet
  facet normal -1 0 0
    outer loop
      vertex 0 23.7991 19.2317
      vertex 0 8.15 76
      vertex 0 21.4056 28.7021
    endloop
  endfacet
  facet normal -1 0 0
    outer loop
      vertex 0 22.2788 27.1897
      vertex 0 23.7991 19.2317
      vertex 0 21.7627 27.9
    endloop
  endfacet
  facet normal -1 0 0
    outer loop
      vertex 0 22.9313 26.6021
      vertex 0 25.4 19.4
      vertex 0 22.2788 27.1897
    endloop
  endfacet
  facet normal -1 0 0
    outer loop
      vertex 0 23.7991 19.2317
      vertex 0 22.2788 27.1897
      vertex 0 25.4 19.4
    endloop
  endfacet
  facet normal -1 0 0
    outer loop
      vertex 0 23.6917 26.1631
      vertex 0 25.4 19.4
      vertex 0 22.9313 26.6021
    endloop
  endfacet
  facet normal -1 0 0
    outer loop
      vertex 0 21.4056 31.2979
      vertex 0 8.15 76
      vertex 0 21.7627 32.1
    endloop
  endfacet
  facet normal -1 0 0
    outer loop
      vertex 0 25.4 19.4
      vertex 0 23.6917 26.1631
      vertex 0 27.0009 19.2317
    endloop
  endfacet
  facet normal -1 0 0
    outer loop
      vertex 0 23.6917 26.1631
      vertex 0 24.5268 25.8918
      vertex 0 27.0009 19.2317
    endloop
  endfacet
  facet normal -1 0 0
    outer loop
      vertex 0 26.2732 25.8918
      vertex 0 28.5319 18.7343
      vertex 0 25.4 25.8
    endloop
  endfacet
  facet normal -1 0 0
    outer loop
      vertex 0 21.7627 27.9
      vertex 0 23.7991 19.2317
      vertex 0 21.4056 28.7021
    endloop
  endfacet
  facet normal -1 0 0
    outer loop
      vertex 0 27.1083 26.1631
      vertex 0 29.9259 17.9294
      vertex 0 26.2732 25.8918
    endloop
  endfacet
  facet normal -1 0 0
    outer loop
      vertex 0 22.9313 33.3979
      vertex 0 8.15 76
      vertex 0 23.6917 33.8369
    endloop
  endfacet
  facet normal -1 0 0
    outer loop
      vertex 0 27.8687 26.6021
      vertex 0 32.7231 14.0794
      vertex 0 32.0684 15.55
    endloop
  endfacet
  facet normal -1 0 0
    outer loop
      vertex 0 29.577 30.439
      vertex 0 42.65 2
      vertex 0 29.577 29.561
    endloop
  endfacet
  facet normal -1 0 0
    outer loop
      vertex 0 32.7231 14.0794
      vertex 0 27.8687 26.6021
      vertex 0 42.65 2
    endloop
  endfacet
  facet normal -1 0 0
    outer loop
      vertex 0 24.5268 34.1082
      vertex 0 8.15 76
      vertex 0 25.4 34.2
    endloop
  endfacet
  facet normal -1 0 0
    outer loop
      vertex 0 27.8687 26.6021
      vertex 0 28.5212 27.1897
      vertex 0 42.65 2
    endloop
  endfacet
  facet normal -1 0 0
    outer loop
      vertex 0 25.4 34.2
      vertex 0 8.15 76
      vertex 0 26.2732 34.1082
    endloop
  endfacet
  facet normal -1 0 0
    outer loop
      vertex 0 28.5212 27.1897
      vertex 0 29.0373 27.9
      vertex 0 42.65 2
    endloop
  endfacet
  facet normal -1 0 0
    outer loop
      vertex 0 29.0373 27.9
      vertex 0 29.3944 28.7021
      vertex 0 42.65 2
    endloop
  endfacet
  facet normal -1 0 0
    outer loop
      vertex 0 26.2732 34.1082
      vertex 0 8.15 76
      vertex 0 27.1083 33.8369
    endloop
  endfacet
  facet normal -1 0 0
    outer loop
      vertex 0 29.3944 28.7021
      vertex 0 29.577 29.561
      vertex 0 42.65 2
    endloop
  endfacet
  facet normal -1 0 0
    outer loop
      vertex 0 29.3944 31.2979
      vertex 0 42.65 2
      vertex 0 29.577 30.439
    endloop
  endfacet
  facet normal -1 0 0
    outer loop
      vertex 0 42.65 2
      vertex 0 29.3944 31.2979
      vertex 0 29.0373 32.1
    endloop
  endfacet
  facet normal -1 0 0
    outer loop
      vertex 0 42.65 2
      vertex 0 29.0373 32.1
      vertex 0 19.8264 52.7315
    endloop
  endfacet
  facet normal -1 0 0
    outer loop
      vertex 0 28.5212 32.8103
      vertex 0 19.8264 52.7315
      vertex 0 29.0373 32.1
    endloop
  endfacet
  facet normal -1 0 0
    outer loop
      vertex 0 27.0009 19.2317
      vertex 0 25.4 25.8
      vertex 0 28.5319 18.7343
    endloop
  endfacet
  facet normal -1 0 0
    outer loop
      vertex 0 21.7627 32.1
      vertex 0 8.15 76
      vertex 0 22.2788 32.8103
    endloop
  endfacet
  facet normal -1 0 0
    outer loop
      vertex 0 25.4 25.8
      vertex 0 27.0009 19.2317
      vertex 0 24.5268 25.8918
    endloop
  endfacet
  facet normal -1 0 0
    outer loop
      vertex 0 21.223 30.439
      vertex 0 8.15 76
      vertex 0 21.4056 31.2979
    endloop
  endfacet
  facet normal -1 0 0
    outer loop
      vertex 0 17.9411 56.966
      vertex 0 17.9 57.75
      vertex 0 17.9411 57.75
    endloop
  endfacet
  facet normal -1 0 0
    outer loop
      vertex 0 23.6917 33.8369
      vertex 0 8.15 76
      vertex 0 24.5268 34.1082
    endloop
  endfacet
  facet normal 0 -1 0
    outer loop
      vertex 18.75 8.15 2
      vertex 18.75 8.15 76
      vertex 0 8.15 76
    endloop
  endfacet
  facet normal 0 -1 0
    outer loop
      vertex 0 8.15 2
      vertex 18.75 8.15 2
      vertex 0 8.15 76
    endloop
  endfacet
  facet normal 0 0 -1
    outer loop
      vertex 0 8.15 2
      vertex 0 42.65 2
      vertex 18.75 8.15 2
    endloop
  endfacet
  facet normal 0 0 -1
    outer loop
      vertex 18.75 8.15 2
      vertex 0 42.65 2
      vertex 18.75 42.65 2
    endloop
  endfacet
  facet normal 0 1 0
    outer loop
      vertex 18.75 42.65 76
      vertex 18.75 42.65 2
      vertex 0 42.65 76
    endloop
  endfacet
  facet normal 0 1 0
    outer loop
      vertex 0 42.65 76
      vertex 18.75 42.65 2
      vertex 0 42.65 2
    endloop
  endfacet
  facet normal 0 0 1
    outer loop
      vertex 5.2 12.15 76
      vertex 0 8.15 76
      vertex 18.75 8.15 76
    endloop
  endfacet
  facet normal 0 0 1
    outer loop
      vertex 3 12.15 76
      vertex 3 17.9 76
      vertex 0 17.9 76
    endloop
  endfacet
  facet normal 0 0 1
    outer loop
      vertex 0 42.65 76
      vertex 3 38.65 76
      vertex 18.75 42.65 76
    endloop
  endfacet
  facet normal 0 0 1
    outer loop
      vertex 0 42.65 76
      vertex 0 32.9 76
      vertex 3 38.65 76
    endloop
  endfacet
  facet normal 0 0 1
    outer loop
      vertex 3 38.65 76
      vertex 5.2 38.65 76
      vertex 18.75 42.65 76
    endloop
  endfacet
  facet normal 0 0 1
    outer loop
      vertex 3 12.15 76
      vertex 0 8.15 76
      vertex 5.2 12.15 76
    endloop
  endfacet
  facet normal 0 0 1
    outer loop
      vertex 0 17.9 76
      vertex 0 8.15 76
      vertex 3 12.15 76
    endloop
  endfacet
  facet normal 0 0 1
    outer loop
      vertex 3 32.9 76
      vertex 3 38.65 76
      vertex 0 32.9 76
    endloop
  endfacet
  facet normal 0 0 1
    outer loop
      vertex 5.2 38.65 76
      vertex 18.75 8.15 76
      vertex 18.75 42.65 76
    endloop
  endfacet
  facet normal 0 0 1
    outer loop
      vertex 5.2 38.65 76
      vertex 5.2 12.15 76
      vertex 18.75 8.15 76
    endloop
  endfacet
  facet normal 0 -1 0
    outer loop
      vertex 0 32.9 76
      vertex 3 32.9 68.6358
      vertex 3 32.9 76
    endloop
  endfacet
  facet normal 0 -1 0
    outer loop
      vertex 3 32.9 57.75
      vertex 3 32.9 68.6358
      vertex 0 32.9 76
    endloop
  endfacet
  facet normal 0 -1 0
    outer loop
      vertex 0 32.9 57.75
      vertex 3 32.9 57.75
      vertex 0 32.9 76
    endloop
  endfacet
  facet normal 0 0 1
    outer loop
      vertex 3 32.8589 57.75
      vertex 3 32.9 57.75
      vertex 0 32.9 57.75
    endloop
  endfacet
  facet normal 0 0 1
    outer loop
      vertex 0 32.8589 57.75
      vertex 3 32.8589 57.75
      vertex 0 32.9 57.75
    endloop
  endfacet
  facet normal 0 -1 0
    outer loop
      vertex 3 32.8589 56.966
      vertex 3 32.8589 57.75
      vertex 0 32.8589 57.75
    endloop
  endfacet
  facet normal 0 -1 0
    outer loop
      vertex 0 32.8589 56.966
      vertex 3 32.8589 56.966
      vertex 0 32.8589 57.75
    endloop
  endfacet
  facet normal -4.61656e-017 -0.978148 0.207911
    outer loop
      vertex 3 32.5329 55.4324
      vertex 3 32.8589 56.966
      vertex 0 32.8589 56.966
    endloop
  endfacet
  facet normal -4.61656e-017 -0.978148 0.207911
    outer loop
      vertex 0 32.5329 55.4324
      vertex 3 32.5329 55.4324
      vertex 0 32.8589 56.966
    endloop
  endfacet
  facet normal -9.03136e-017 -0.913546 0.406736
    outer loop
      vertex 3 31.8952 54
      vertex 3 32.5329 55.4324
      vertex 0 32.5329 55.4324
    endloop
  endfacet
  facet normal -9.03136e-017 -0.913546 0.406736
    outer loop
      vertex 0 31.8952 54
      vertex 3 31.8952 54
      vertex 0 32.5329 55.4324
    endloop
  endfacet
  facet normal -1.30515e-016 -0.809017 0.587785
    outer loop
      vertex 3 30.9736 52.7315
      vertex 3 31.8952 54
      vertex 0 31.8952 54
    endloop
  endfacet
  facet normal -1.30515e-016 -0.809017 0.587785
    outer loop
      vertex 0 30.9736 52.7315
      vertex 3 30.9736 52.7315
      vertex 0 31.8952 54
    endloop
  endfacet
  facet normal -1.65011e-016 -0.66913 0.743145
    outer loop
      vertex 3 29.8084 51.6824
      vertex 3 30.9736 52.7315
      vertex 0 30.9736 52.7315
    endloop
  endfacet
  facet normal -1.65011e-016 -0.66913 0.743145
    outer loop
      vertex 0 29.8084 51.6824
      vertex 3 29.8084 51.6824
      vertex 0 30.9736 52.7315
    endloop
  endfacet
  facet normal -1.92296e-016 -0.5 0.866025
    outer loop
      vertex 3 28.4505 50.8984
      vertex 3 29.8084 51.6824
      vertex 0 29.8084 51.6824
    endloop
  endfacet
  facet normal -1.92296e-016 -0.5 0.866025
    outer loop
      vertex 0 28.4505 50.8984
      vertex 3 28.4505 50.8984
      vertex 0 29.8084 51.6824
    endloop
  endfacet
  facet normal -2.11177e-016 -0.309017 0.951057
    outer loop
      vertex 3 26.9593 50.4139
      vertex 3 28.4505 50.8984
      vertex 0 28.4505 50.8984
    endloop
  endfacet
  facet normal -2.11177e-016 -0.309017 0.951057
    outer loop
      vertex 0 26.9593 50.4139
      vertex 3 26.9593 50.4139
      vertex 0 28.4505 50.8984
    endloop
  endfacet
  facet normal -2.20828e-016 -0.104528 0.994522
    outer loop
      vertex 3 25.4 50.25
      vertex 3 26.9593 50.4139
      vertex 0 26.9593 50.4139
    endloop
  endfacet
  facet normal -2.20828e-016 -0.104528 0.994522
    outer loop
      vertex 0 25.4 50.25
      vertex 3 25.4 50.25
      vertex 0 26.9593 50.4139
    endloop
  endfacet
  facet normal -2.20828e-016 0.104528 0.994522
    outer loop
      vertex 3 23.8407 50.4139
      vertex 3 25.4 50.25
      vertex 0 25.4 50.25
    endloop
  endfacet
  facet normal -2.20828e-016 0.104528 0.994522
    outer loop
      vertex 0 23.8407 50.4139
      vertex 3 23.8407 50.4139
      vertex 0 25.4 50.25
    endloop
  endfacet
  facet normal -2.11177e-016 0.309017 0.951057
    outer loop
      vertex 3 22.3495 50.8984
      vertex 3 23.8407 50.4139
      vertex 0 23.8407 50.4139
    endloop
  endfacet
  facet normal -2.11177e-016 0.309017 0.951057
    outer loop
      vertex 0 22.3495 50.8984
      vertex 3 22.3495 50.8984
      vertex 0 23.8407 50.4139
    endloop
  endfacet
  facet normal -1.92296e-016 0.5 0.866025
    outer loop
      vertex 3 20.9916 51.6824
      vertex 3 22.3495 50.8984
      vertex 0 22.3495 50.8984
    endloop
  endfacet
  facet normal -1.92296e-016 0.5 0.866025
    outer loop
      vertex 0 20.9916 51.6824
      vertex 3 20.9916 51.6824
      vertex 0 22.3495 50.8984
    endloop
  endfacet
  facet normal -1.65011e-016 0.66913 0.743145
    outer loop
      vertex 3 19.8264 52.7315
      vertex 3 20.9916 51.6824
      vertex 0 20.9916 51.6824
    endloop
  endfacet
  facet normal -1.65011e-016 0.66913 0.743145
    outer loop
      vertex 0 19.8264 52.7315
      vertex 3 19.8264 52.7315
      vertex 0 20.9916 51.6824
    endloop
  endfacet
  facet normal -1.30515e-016 0.809017 0.587785
    outer loop
      vertex 3 19.8264 52.7315
      vertex 0 19.8264 52.7315
      vertex 3 18.9048 54
    endloop
  endfacet
  facet normal -1.30515e-016 0.809017 0.587785
    outer loop
      vertex 3 18.9048 54
      vertex 0 19.8264 52.7315
      vertex 0 18.9048 54
    endloop
  endfacet
  facet normal -9.03136e-017 0.913546 0.406736
    outer loop
      vertex 3 18.9048 54
      vertex 0 18.9048 54
      vertex 3 18.2671 55.4324
    endloop
  endfacet
  facet normal -9.03136e-017 0.913546 0.406736
    outer loop
      vertex 3 18.2671 55.4324
      vertex 0 18.9048 54
      vertex 0 18.2671 55.4324
    endloop
  endfacet
  facet normal -4.61656e-017 0.978148 0.207911
    outer loop
      vertex 3 18.2671 55.4324
      vertex 0 18.2671 55.4324
      vertex 3 17.9411 56.966
    endloop
  endfacet
  facet normal -4.61656e-017 0.978148 0.207911
    outer loop
      vertex 3 17.9411 56.966
      vertex 0 18.2671 55.4324
      vertex 0 17.9411 56.966
    endloop
  endfacet
  facet normal 0 1 0
    outer loop
      vertex 3 17.9411 57.75
      vertex 3 17.9411 56.966
      vertex 0 17.9411 57.75
    endloop
  endfacet
  facet normal 0 1 0
    outer loop
      vertex 0 17.9411 57.75
      vertex 3 17.9411 56.966
      vertex 0 17.9411 56.966
    endloop
  endfacet
  facet normal 0 0 1
    outer loop
      vertex 3 17.9 57.75
      vertex 3 17.9411 57.75
      vertex 0 17.9411 57.75
    endloop
  endfacet
  facet normal 0 0 1
    outer loop
      vertex 0 17.9 57.75
      vertex 3 17.9 57.75
      vertex 0 17.9411 57.75
    endloop
  endfacet
  facet normal 0 1 0
    outer loop
      vertex 3 17.9 76
      vertex 3 17.9 68.6358
      vertex 0 17.9 76
    endloop
  endfacet
  facet normal 0 1 0
    outer loop
      vertex 0 17.9 76
      vertex 3 17.9 68.6358
      vertex 3 17.9 57.75
    endloop
  endfacet
  facet normal 0 1 0
    outer loop
      vertex 0 17.9 76
      vertex 3 17.9 57.75
      vertex 0 17.9 57.75
    endloop
  endfacet
  facet normal 4.61657e-017 0.978148 -0.207912
    outer loop
      vertex 18.75 18.0769 14.0794
      vertex 18.75 17.7422 12.5049
      vertex 0 18.0769 14.0794
    endloop
  endfacet
  facet normal 4.61657e-017 0.978148 -0.207912
    outer loop
      vertex 0 18.0769 14.0794
      vertex 18.75 17.7422 12.5049
      vertex 0 17.7422 12.5049
    endloop
  endfacet
  facet normal 0 1 0
    outer loop
      vertex 18.75 17.7422 12.5049
      vertex 18.75 17.7422 10.8951
      vertex 0 17.7422 12.5049
    endloop
  endfacet
  facet normal 0 1 0
    outer loop
      vertex 0 17.7422 12.5049
      vertex 18.75 17.7422 10.8951
      vertex 0 17.7422 10.8951
    endloop
  endfacet
  facet normal 9.03136e-017 0.913546 -0.406736
    outer loop
      vertex 18.75 18.7316 15.55
      vertex 18.75 18.0769 14.0794
      vertex 0 18.7316 15.55
    endloop
  endfacet
  facet normal 9.03136e-017 0.913546 -0.406736
    outer loop
      vertex 0 18.7316 15.55
      vertex 18.75 18.0769 14.0794
      vertex 0 18.0769 14.0794
    endloop
  endfacet
  facet normal 1.30515e-016 0.809017 -0.587785
    outer loop
      vertex 18.75 19.6778 16.8523
      vertex 18.75 18.7316 15.55
      vertex 0 19.6778 16.8523
    endloop
  endfacet
  facet normal 1.30515e-016 0.809017 -0.587785
    outer loop
      vertex 0 19.6778 16.8523
      vertex 18.75 18.7316 15.55
      vertex 0 18.7316 15.55
    endloop
  endfacet
  facet normal 1.65011e-016 0.66913 -0.743145
    outer loop
      vertex 18.75 20.8741 17.9294
      vertex 18.75 19.6778 16.8523
      vertex 0 20.8741 17.9294
    endloop
  endfacet
  facet normal 1.65011e-016 0.66913 -0.743145
    outer loop
      vertex 0 20.8741 17.9294
      vertex 18.75 19.6778 16.8523
      vertex 0 19.6778 16.8523
    endloop
  endfacet
  facet normal 1.92296e-016 0.5 -0.866025
    outer loop
      vertex 18.75 22.2681 18.7343
      vertex 18.75 20.8741 17.9294
      vertex 0 22.2681 18.7343
    endloop
  endfacet
  facet normal 1.92296e-016 0.5 -0.866025
    outer loop
      vertex 0 22.2681 18.7343
      vertex 18.75 20.8741 17.9294
      vertex 0 20.8741 17.9294
    endloop
  endfacet
  facet normal 2.11177e-016 0.309017 -0.951056
    outer loop
      vertex 18.75 23.7991 19.2317
      vertex 18.75 22.2681 18.7343
      vertex 0 23.7991 19.2317
    endloop
  endfacet
  facet normal 2.11177e-016 0.309017 -0.951056
    outer loop
      vertex 0 23.7991 19.2317
      vertex 18.75 22.2681 18.7343
      vertex 0 22.2681 18.7343
    endloop
  endfacet
  facet normal 2.20828e-016 0.104528 -0.994522
    outer loop
      vertex 18.75 25.4 19.4
      vertex 18.75 23.7991 19.2317
      vertex 0 25.4 19.4
    endloop
  endfacet
  facet normal 2.20828e-016 0.104528 -0.994522
    outer loop
      vertex 0 25.4 19.4
      vertex 18.75 23.7991 19.2317
      vertex 0 23.7991 19.2317
    endloop
  endfacet
  facet normal 2.20828e-016 -0.104528 -0.994522
    outer loop
      vertex 18.75 27.0009 19.2317
      vertex 18.75 25.4 19.4
      vertex 0 27.0009 19.2317
    endloop
  endfacet
  facet normal 2.20828e-016 -0.104528 -0.994522
    outer loop
      vertex 0 27.0009 19.2317
      vertex 18.75 25.4 19.4
      vertex 0 25.4 19.4
    endloop
  endfacet
  facet normal 2.11177e-016 -0.309017 -0.951056
    outer loop
      vertex 18.75 28.5319 18.7343
      vertex 18.75 27.0009 19.2317
      vertex 0 28.5319 18.7343
    endloop
  endfacet
  facet normal 2.11177e-016 -0.309017 -0.951056
    outer loop
      vertex 0 28.5319 18.7343
      vertex 18.75 27.0009 19.2317
      vertex 0 27.0009 19.2317
    endloop
  endfacet
  facet normal 1.92296e-016 -0.5 -0.866025
    outer loop
      vertex 18.75 29.9259 17.9294
      vertex 18.75 28.5319 18.7343
      vertex 0 29.9259 17.9294
    endloop
  endfacet
  facet normal 1.92296e-016 -0.5 -0.866025
    outer loop
      vertex 0 29.9259 17.9294
      vertex 18.75 28.5319 18.7343
      vertex 0 28.5319 18.7343
    endloop
  endfacet
  facet normal 1.65011e-016 -0.66913 -0.743145
    outer loop
      vertex 18.75 31.1222 16.8523
      vertex 18.75 29.9259 17.9294
      vertex 0 31.1222 16.8523
    endloop
  endfacet
  facet normal 1.65011e-016 -0.66913 -0.743145
    outer loop
      vertex 0 31.1222 16.8523
      vertex 18.75 29.9259 17.9294
      vertex 0 29.9259 17.9294
    endloop
  endfacet
  facet normal 1.30515e-016 -0.809017 -0.587785
    outer loop
      vertex 0 32.0684 15.55
      vertex 18.75 32.0684 15.55
      vertex 18.75 31.1222 16.8523
    endloop
  endfacet
  facet normal 1.30515e-016 -0.809017 -0.587785
    outer loop
      vertex 0 31.1222 16.8523
      vertex 0 32.0684 15.55
      vertex 18.75 31.1222 16.8523
    endloop
  endfacet
  facet normal 9.03136e-017 -0.913546 -0.406736
    outer loop
      vertex 0 32.7231 14.0794
      vertex 18.75 32.7231 14.0794
      vertex 18.75 32.0684 15.55
    endloop
  endfacet
  facet normal 9.03136e-017 -0.913546 -0.406736
    outer loop
      vertex 0 32.0684 15.55
      vertex 0 32.7231 14.0794
      vertex 18.75 32.0684 15.55
    endloop
  endfacet
  facet normal 4.61657e-017 -0.978148 -0.207912
    outer loop
      vertex 0 33.0578 12.5049
      vertex 18.75 33.0578 12.5049
      vertex 18.75 32.7231 14.0794
    endloop
  endfacet
  facet normal 4.61657e-017 -0.978148 -0.207912
    outer loop
      vertex 0 32.7231 14.0794
      vertex 0 33.0578 12.5049
      vertex 18.75 32.7231 14.0794
    endloop
  endfacet
  facet normal 0 -1 0
    outer loop
      vertex 18.75 33.0578 10.8951
      vertex 18.75 33.0578 12.5049
      vertex 0 33.0578 12.5049
    endloop
  endfacet
  facet normal 0 -1 0
    outer loop
      vertex 0 33.0578 10.8951
      vertex 18.75 33.0578 10.8951
      vertex 0 33.0578 12.5049
    endloop
  endfacet
  facet normal -4.61657e-017 -0.978148 0.207912
    outer loop
      vertex 18.75 32.7231 9.32057
      vertex 18.75 33.0578 10.8951
      vertex 0 33.0578 10.8951
    endloop
  endfacet
  facet normal -4.61657e-017 -0.978148 0.207912
    outer loop
      vertex 0 32.7231 9.32057
      vertex 18.75 32.7231 9.32057
      vertex 0 33.0578 10.8951
    endloop
  endfacet
  facet normal -9.03136e-017 -0.913546 0.406736
    outer loop
      vertex 18.75 32.0684 7.85
      vertex 18.75 32.7231 9.32057
      vertex 0 32.7231 9.32057
    endloop
  endfacet
  facet normal -9.03136e-017 -0.913546 0.406736
    outer loop
      vertex 0 32.0684 7.85
      vertex 18.75 32.0684 7.85
      vertex 0 32.7231 9.32057
    endloop
  endfacet
  facet normal -1.30515e-016 -0.809017 0.587785
    outer loop
      vertex 18.75 31.1222 6.54769
      vertex 18.75 32.0684 7.85
      vertex 0 32.0684 7.85
    endloop
  endfacet
  facet normal -1.30515e-016 -0.809017 0.587785
    outer loop
      vertex 0 31.1222 6.54769
      vertex 18.75 31.1222 6.54769
      vertex 0 32.0684 7.85
    endloop
  endfacet
  facet normal -1.65011e-016 -0.66913 0.743145
    outer loop
      vertex 18.75 29.9259 5.47057
      vertex 18.75 31.1222 6.54769
      vertex 0 31.1222 6.54769
    endloop
  endfacet
  facet normal -1.65011e-016 -0.66913 0.743145
    outer loop
      vertex 0 29.9259 5.47057
      vertex 18.75 29.9259 5.47057
      vertex 0 31.1222 6.54769
    endloop
  endfacet
  facet normal -1.92296e-016 -0.5 0.866025
    outer loop
      vertex 18.75 28.5319 4.6657
      vertex 18.75 29.9259 5.47057
      vertex 0 29.9259 5.47057
    endloop
  endfacet
  facet normal -1.92296e-016 -0.5 0.866025
    outer loop
      vertex 0 28.5319 4.6657
      vertex 18.75 28.5319 4.6657
      vertex 0 29.9259 5.47057
    endloop
  endfacet
  facet normal -2.11177e-016 -0.309017 0.951056
    outer loop
      vertex 18.75 27.0009 4.16826
      vertex 18.75 28.5319 4.6657
      vertex 0 28.5319 4.6657
    endloop
  endfacet
  facet normal -2.11177e-016 -0.309017 0.951056
    outer loop
      vertex 0 27.0009 4.16826
      vertex 18.75 27.0009 4.16826
      vertex 0 28.5319 4.6657
    endloop
  endfacet
  facet normal -2.20828e-016 -0.104528 0.994522
    outer loop
      vertex 18.75 25.4 4
      vertex 18.75 27.0009 4.16826
      vertex 0 27.0009 4.16826
    endloop
  endfacet
  facet normal -2.20828e-016 -0.104528 0.994522
    outer loop
      vertex 0 25.4 4
      vertex 18.75 25.4 4
      vertex 0 27.0009 4.16826
    endloop
  endfacet
  facet normal -2.20828e-016 0.104528 0.994522
    outer loop
      vertex 18.75 23.7991 4.16826
      vertex 18.75 25.4 4
      vertex 0 25.4 4
    endloop
  endfacet
  facet normal -2.20828e-016 0.104528 0.994522
    outer loop
      vertex 0 23.7991 4.16826
      vertex 18.75 23.7991 4.16826
      vertex 0 25.4 4
    endloop
  endfacet
  facet normal -2.11177e-016 0.309017 0.951056
    outer loop
      vertex 18.75 22.2681 4.6657
      vertex 18.75 23.7991 4.16826
      vertex 0 23.7991 4.16826
    endloop
  endfacet
  facet normal -2.11177e-016 0.309017 0.951056
    outer loop
      vertex 0 22.2681 4.6657
      vertex 18.75 22.2681 4.6657
      vertex 0 23.7991 4.16826
    endloop
  endfacet
  facet normal -1.92296e-016 0.5 0.866025
    outer loop
      vertex 18.75 20.8741 5.47057
      vertex 18.75 22.2681 4.6657
      vertex 0 22.2681 4.6657
    endloop
  endfacet
  facet normal -1.92296e-016 0.5 0.866025
    outer loop
      vertex 0 20.8741 5.47057
      vertex 18.75 20.8741 5.47057
      vertex 0 22.2681 4.6657
    endloop
  endfacet
  facet normal -1.65011e-016 0.66913 0.743145
    outer loop
      vertex 18.75 19.6778 6.54769
      vertex 18.75 20.8741 5.47057
      vertex 0 20.8741 5.47057
    endloop
  endfacet
  facet normal -1.65011e-016 0.66913 0.743145
    outer loop
      vertex 0 19.6778 6.54769
      vertex 18.75 19.6778 6.54769
      vertex 0 20.8741 5.47057
    endloop
  endfacet
  facet normal -1.30515e-016 0.809017 0.587785
    outer loop
      vertex 18.75 19.6778 6.54769
      vertex 0 19.6778 6.54769
      vertex 18.75 18.7316 7.85
    endloop
  endfacet
  facet normal -1.30515e-016 0.809017 0.587785
    outer loop
      vertex 18.75 18.7316 7.85
      vertex 0 19.6778 6.54769
      vertex 0 18.7316 7.85
    endloop
  endfacet
  facet normal -9.03136e-017 0.913546 0.406736
    outer loop
      vertex 18.75 18.7316 7.85
      vertex 0 18.7316 7.85
      vertex 18.75 18.0769 9.32057
    endloop
  endfacet
  facet normal -9.03136e-017 0.913546 0.406736
    outer loop
      vertex 18.75 18.0769 9.32057
      vertex 0 18.7316 7.85
      vertex 0 18.0769 9.32057
    endloop
  endfacet
  facet normal -4.61657e-017 0.978148 0.207912
    outer loop
      vertex 18.75 18.0769 9.32057
      vertex 0 18.0769 9.32057
      vertex 18.75 17.7422 10.8951
    endloop
  endfacet
  facet normal -4.61657e-017 0.978148 0.207912
    outer loop
      vertex 18.75 17.7422 10.8951
      vertex 0 18.0769 9.32057
      vertex 0 17.7422 10.8951
    endloop
  endfacet
  facet normal 0 1 0
    outer loop
      vertex 8.199 21.223 30.439
      vertex 8.199 21.223 29.561
      vertex 0 21.223 30.439
    endloop
  endfacet
  facet normal 0 1 0
    outer loop
      vertex 0 21.223 30.439
      vertex 8.199 21.223 29.561
      vertex 0 21.223 29.561
    endloop
  endfacet
  facet normal 4.61658e-017 0.978147 -0.207912
    outer loop
      vertex 8.199 21.4056 31.2979
      vertex 8.199 21.223 30.439
      vertex 0 21.4056 31.2979
    endloop
  endfacet
  facet normal 4.61658e-017 0.978147 -0.207912
    outer loop
      vertex 0 21.4056 31.2979
      vertex 8.199 21.223 30.439
      vertex 0 21.223 30.439
    endloop
  endfacet
  facet normal 9.03135e-017 0.913546 -0.406736
    outer loop
      vertex 8.199 21.7627 32.1
      vertex 8.199 21.4056 31.2979
      vertex 0 21.7627 32.1
    endloop
  endfacet
  facet normal 9.03135e-017 0.913546 -0.406736
    outer loop
      vertex 0 21.7627 32.1
      vertex 8.199 21.4056 31.2979
      vertex 0 21.4056 31.2979
    endloop
  endfacet
  facet normal 1.30515e-016 0.809017 -0.587785
    outer loop
      vertex 8.199 22.2788 32.8103
      vertex 8.199 21.7627 32.1
      vertex 0 22.2788 32.8103
    endloop
  endfacet
  facet normal 1.30515e-016 0.809017 -0.587785
    outer loop
      vertex 0 22.2788 32.8103
      vertex 8.199 21.7627 32.1
      vertex 0 21.7627 32.1
    endloop
  endfacet
  facet normal 1.65011e-016 0.66913 -0.743145
    outer loop
      vertex 8.199 22.9313 33.3979
      vertex 8.199 22.2788 32.8103
      vertex 0 22.9313 33.3979
    endloop
  endfacet
  facet normal 1.65011e-016 0.66913 -0.743145
    outer loop
      vertex 0 22.9313 33.3979
      vertex 8.199 22.2788 32.8103
      vertex 0 22.2788 32.8103
    endloop
  endfacet
  facet normal 1.92296e-016 0.5 -0.866025
    outer loop
      vertex 8.199 23.6917 33.8369
      vertex 8.199 22.9313 33.3979
      vertex 0 23.6917 33.8369
    endloop
  endfacet
  facet normal 1.92296e-016 0.5 -0.866025
    outer loop
      vertex 0 23.6917 33.8369
      vertex 8.199 22.9313 33.3979
      vertex 0 22.9313 33.3979
    endloop
  endfacet
  facet normal 2.11177e-016 0.309017 -0.951057
    outer loop
      vertex 8.199 24.5268 34.1082
      vertex 8.199 23.6917 33.8369
      vertex 0 24.5268 34.1082
    endloop
  endfacet
  facet normal 2.11177e-016 0.309017 -0.951057
    outer loop
      vertex 0 24.5268 34.1082
      vertex 8.199 23.6917 33.8369
      vertex 0 23.6917 33.8369
    endloop
  endfacet
  facet normal 2.20828e-016 0.104528 -0.994522
    outer loop
      vertex 8.199 25.4 34.2
      vertex 8.199 24.5268 34.1082
      vertex 0 25.4 34.2
    endloop
  endfacet
  facet normal 2.20828e-016 0.104528 -0.994522
    outer loop
      vertex 0 25.4 34.2
      vertex 8.199 24.5268 34.1082
      vertex 0 24.5268 34.1082
    endloop
  endfacet
  facet normal 2.20828e-016 -0.104528 -0.994522
    outer loop
      vertex 8.199 26.2732 34.1082
      vertex 8.199 25.4 34.2
      vertex 0 26.2732 34.1082
    endloop
  endfacet
  facet normal 2.20828e-016 -0.104528 -0.994522
    outer loop
      vertex 0 26.2732 34.1082
      vertex 8.199 25.4 34.2
      vertex 0 25.4 34.2
    endloop
  endfacet
  facet normal 2.11177e-016 -0.309017 -0.951057
    outer loop
      vertex 8.199 27.1083 33.8369
      vertex 8.199 26.2732 34.1082
      vertex 0 27.1083 33.8369
    endloop
  endfacet
  facet normal 2.11177e-016 -0.309017 -0.951057
    outer loop
      vertex 0 27.1083 33.8369
      vertex 8.199 26.2732 34.1082
      vertex 0 26.2732 34.1082
    endloop
  endfacet
  facet normal 1.92296e-016 -0.5 -0.866025
    outer loop
      vertex 8.199 27.8687 33.3979
      vertex 8.199 27.1083 33.8369
      vertex 0 27.8687 33.3979
    endloop
  endfacet
  facet normal 1.92296e-016 -0.5 -0.866025
    outer loop
      vertex 0 27.8687 33.3979
      vertex 8.199 27.1083 33.8369
      vertex 0 27.1083 33.8369
    endloop
  endfacet
  facet normal 1.65011e-016 -0.66913 -0.743145
    outer loop
      vertex 8.199 28.5212 32.8103
      vertex 8.199 27.8687 33.3979
      vertex 0 28.5212 32.8103
    endloop
  endfacet
  facet normal 1.65011e-016 -0.66913 -0.743145
    outer loop
      vertex 0 28.5212 32.8103
      vertex 8.199 27.8687 33.3979
      vertex 0 27.8687 33.3979
    endloop
  endfacet
  facet normal 1.30515e-016 -0.809017 -0.587785
    outer loop
      vertex 0 29.0373 32.1
      vertex 8.199 29.0373 32.1
      vertex 8.199 28.5212 32.8103
    endloop
  endfacet
  facet normal 1.30515e-016 -0.809017 -0.587785
    outer loop
      vertex 0 28.5212 32.8103
      vertex 0 29.0373 32.1
      vertex 8.199 28.5212 32.8103
    endloop
  endfacet
  facet normal 9.03135e-017 -0.913546 -0.406736
    outer loop
      vertex 0 29.3944 31.2979
      vertex 8.199 29.3944 31.2979
      vertex 8.199 29.0373 32.1
    endloop
  endfacet
  facet normal 9.03135e-017 -0.913546 -0.406736
    outer loop
      vertex 0 29.0373 32.1
      vertex 0 29.3944 31.2979
      vertex 8.199 29.0373 32.1
    endloop
  endfacet
  facet normal 4.61658e-017 -0.978147 -0.207912
    outer loop
      vertex 0 29.577 30.439
      vertex 8.199 29.577 30.439
      vertex 8.199 29.3944 31.2979
    endloop
  endfacet
  facet normal 4.61658e-017 -0.978147 -0.207912
    outer loop
      vertex 0 29.3944 31.2979
      vertex 0 29.577 30.439
      vertex 8.199 29.3944 31.2979
    endloop
  endfacet
  facet normal 0 -1 0
    outer loop
      vertex 8.199 29.577 29.561
      vertex 8.199 29.577 30.439
      vertex 0 29.577 30.439
    endloop
  endfacet
  facet normal 0 -1 0
    outer loop
      vertex 0 29.577 29.561
      vertex 8.199 29.577 29.561
      vertex 0 29.577 30.439
    endloop
  endfacet
  facet normal -4.61658e-017 -0.978147 0.207912
    outer loop
      vertex 8.199 29.3944 28.7021
      vertex 8.199 29.577 29.561
      vertex 0 29.577 29.561
    endloop
  endfacet
  facet normal -4.61658e-017 -0.978147 0.207912
    outer loop
      vertex 0 29.3944 28.7021
      vertex 8.199 29.3944 28.7021
      vertex 0 29.577 29.561
    endloop
  endfacet
  facet normal -9.03135e-017 -0.913546 0.406736
    outer loop
      vertex 8.199 29.0373 27.9
      vertex 8.199 29.3944 28.7021
      vertex 0 29.3944 28.7021
    endloop
  endfacet
  facet normal -9.03135e-017 -0.913546 0.406736
    outer loop
      vertex 0 29.0373 27.9
      vertex 8.199 29.0373 27.9
      vertex 0 29.3944 28.7021
    endloop
  endfacet
  facet normal -1.30515e-016 -0.809017 0.587785
    outer loop
      vertex 8.199 28.5212 27.1897
      vertex 8.199 29.0373 27.9
      vertex 0 29.0373 27.9
    endloop
  endfacet
  facet normal -1.30515e-016 -0.809017 0.587785
    outer loop
      vertex 0 28.5212 27.1897
      vertex 8.199 28.5212 27.1897
      vertex 0 29.0373 27.9
    endloop
  endfacet
  facet normal -1.65011e-016 -0.66913 0.743145
    outer loop
      vertex 8.199 27.8687 26.6021
      vertex 8.199 28.5212 27.1897
      vertex 0 28.5212 27.1897
    endloop
  endfacet
  facet normal -1.65011e-016 -0.66913 0.743145
    outer loop
      vertex 0 27.8687 26.6021
      vertex 8.199 27.8687 26.6021
      vertex 0 28.5212 27.1897
    endloop
  endfacet
  facet normal -1.92296e-016 -0.5 0.866025
    outer loop
      vertex 8.199 27.1083 26.1631
      vertex 8.199 27.8687 26.6021
      vertex 0 27.8687 26.6021
    endloop
  endfacet
  facet normal -1.92296e-016 -0.5 0.866025
    outer loop
      vertex 0 27.1083 26.1631
      vertex 8.199 27.1083 26.1631
      vertex 0 27.8687 26.6021
    endloop
  endfacet
  facet normal -2.11177e-016 -0.309017 0.951057
    outer loop
      vertex 8.199 26.2732 25.8918
      vertex 8.199 27.1083 26.1631
      vertex 0 27.1083 26.1631
    endloop
  endfacet
  facet normal -2.11177e-016 -0.309017 0.951057
    outer loop
      vertex 0 26.2732 25.8918
      vertex 8.199 26.2732 25.8918
      vertex 0 27.1083 26.1631
    endloop
  endfacet
  facet normal -2.20828e-016 -0.104528 0.994522
    outer loop
      vertex 8.199 25.4 25.8
      vertex 8.199 26.2732 25.8918
      vertex 0 26.2732 25.8918
    endloop
  endfacet
  facet normal -2.20828e-016 -0.104528 0.994522
    outer loop
      vertex 0 25.4 25.8
      vertex 8.199 25.4 25.8
      vertex 0 26.2732 25.8918
    endloop
  endfacet
  facet normal -2.20828e-016 0.104528 0.994522
    outer loop
      vertex 8.199 24.5268 25.8918
      vertex 8.199 25.4 25.8
      vertex 0 25.4 25.8
    endloop
  endfacet
  facet normal -2.20828e-016 0.104528 0.994522
    outer loop
      vertex 0 24.5268 25.8918
      vertex 8.199 24.5268 25.8918
      vertex 0 25.4 25.8
    endloop
  endfacet
  facet normal -2.11177e-016 0.309017 0.951057
    outer loop
      vertex 8.199 23.6917 26.1631
      vertex 8.199 24.5268 25.8918
      vertex 0 24.5268 25.8918
    endloop
  endfacet
  facet normal -2.11177e-016 0.309017 0.951057
    outer loop
      vertex 0 23.6917 26.1631
      vertex 8.199 23.6917 26.1631
      vertex 0 24.5268 25.8918
    endloop
  endfacet
  facet normal -1.92296e-016 0.5 0.866025
    outer loop
      vertex 8.199 22.9313 26.6021
      vertex 8.199 23.6917 26.1631
      vertex 0 23.6917 26.1631
    endloop
  endfacet
  facet normal -1.92296e-016 0.5 0.866025
    outer loop
      vertex 0 22.9313 26.6021
      vertex 8.199 22.9313 26.6021
      vertex 0 23.6917 26.1631
    endloop
  endfacet
  facet normal -1.65011e-016 0.66913 0.743145
    outer loop
      vertex 8.199 22.2788 27.1897
      vertex 8.199 22.9313 26.6021
      vertex 0 22.9313 26.6021
    endloop
  endfacet
  facet normal -1.65011e-016 0.66913 0.743145
    outer loop
      vertex 0 22.2788 27.1897
      vertex 8.199 22.2788 27.1897
      vertex 0 22.9313 26.6021
    endloop
  endfacet
  facet normal -1.30515e-016 0.809017 0.587785
    outer loop
      vertex 8.199 22.2788 27.1897
      vertex 0 22.2788 27.1897
      vertex 8.199 21.7627 27.9
    endloop
  endfacet
  facet normal -1.30515e-016 0.809017 0.587785
    outer loop
      vertex 8.199 21.7627 27.9
      vertex 0 22.2788 27.1897
      vertex 0 21.7627 27.9
    endloop
  endfacet
  facet normal -9.03135e-017 0.913546 0.406736
    outer loop
      vertex 8.199 21.7627 27.9
      vertex 0 21.7627 27.9
      vertex 8.199 21.4056 28.7021
    endloop
  endfacet
  facet normal -9.03135e-017 0.913546 0.406736
    outer loop
      vertex 8.199 21.4056 28.7021
      vertex 0 21.7627 27.9
      vertex 0 21.4056 28.7021
    endloop
  endfacet
  facet normal -4.61658e-017 0.978147 0.207912
    outer loop
      vertex 8.199 21.4056 28.7021
      vertex 0 21.4056 28.7021
      vertex 8.199 21.223 29.561
    endloop
  endfacet
  facet normal -4.61658e-017 0.978147 0.207912
    outer loop
      vertex 8.199 21.223 29.561
      vertex 0 21.4056 28.7021
      vertex 0 21.223 29.561
    endloop
  endfacet
  facet normal 1 0 0
    outer loop
      vertex 18.75 27.0009 4.16826
      vertex 18.75 8.15 2
      vertex 18.75 42.65 2
    endloop
  endfacet
  facet normal 1 0 0
    outer loop
      vertex 18.75 32 33.8105
      vertex 18.75 29.0373 32.1
      vertex 18.75 42.65 2
    endloop
  endfacet
  facet normal 1 0 0
    outer loop
      vertex 18.75 25.4 4
      vertex 18.75 23.7991 4.16826
      vertex 18.75 8.15 2
    endloop
  endfacet
  facet normal 1 0 0
    outer loop
      vertex 18.75 8.15 76
      vertex 18.75 8.15 2
      vertex 18.75 17.7422 10.8951
    endloop
  endfacet
  facet normal 1 0 0
    outer loop
      vertex 18.75 31.1222 6.54769
      vertex 18.75 29.9259 5.47057
      vertex 18.75 42.65 2
    endloop
  endfacet
  facet normal 1 0 0
    outer loop
      vertex 18.75 8.15 76
      vertex 18.75 17.7422 10.8951
      vertex 18.75 17.7422 12.5049
    endloop
  endfacet
  facet normal 1 0 0
    outer loop
      vertex 18.75 8.15 76
      vertex 18.75 17.7422 12.5049
      vertex 18.75 18.0769 14.0794
    endloop
  endfacet
  facet normal 1 0 0
    outer loop
      vertex 18.75 8.15 76
      vertex 18.75 18.0769 14.0794
      vertex 18.75 18.7316 15.55
    endloop
  endfacet
  facet normal 1 0 0
    outer loop
      vertex 18.75 32.0684 7.85
      vertex 18.75 31.1222 6.54769
      vertex 18.75 42.65 2
    endloop
  endfacet
  facet normal 1 0 0
    outer loop
      vertex 18.75 8.15 76
      vertex 18.75 18.7316 15.55
      vertex 18.75 19.6778 16.8523
    endloop
  endfacet
  facet normal 1 0 0
    outer loop
      vertex 18.75 8.15 76
      vertex 18.75 19.6778 16.8523
      vertex 18.75 20.8741 17.9294
    endloop
  endfacet
  facet normal 1 0 0
    outer loop
      vertex 18.75 8.15 76
      vertex 18.75 20.8741 17.9294
      vertex 18.75 22.2681 18.7343
    endloop
  endfacet
  facet normal 1 0 0
    outer loop
      vertex 18.75 18.8 33.8105
      vertex 18.75 22.2681 18.7343
      vertex 18.75 23.7991 19.2317
    endloop
  endfacet
  facet normal 1 0 0
    outer loop
      vertex 18.75 22.9313 26.6021
      vertex 18.75 23.7991 19.2317
      vertex 18.75 25.4 19.4
    endloop
  endfacet
  facet normal 1 0 0
    outer loop
      vertex 18.75 33.0578 12.5049
      vertex 18.75 33.0578 10.8951
      vertex 18.75 42.65 2
    endloop
  endfacet
  facet normal 1 0 0
    outer loop
      vertex 18.75 24.5268 25.8918
      vertex 18.75 25.4 19.4
      vertex 18.75 27.0009 19.2317
    endloop
  endfacet
  facet normal 1 0 0
    outer loop
      vertex 18.75 33.0578 10.8951
      vertex 18.75 32.7231 9.32057
      vertex 18.75 42.65 2
    endloop
  endfacet
  facet normal 1 0 0
    outer loop
      vertex 18.75 25.4 25.8
      vertex 18.75 27.0009 19.2317
      vertex 18.75 28.5319 18.7343
    endloop
  endfacet
  facet normal 1 0 0
    outer loop
      vertex 18.75 26.2732 25.8918
      vertex 18.75 28.5319 18.7343
      vertex 18.75 29.9259 17.9294
    endloop
  endfacet
  facet normal 1 0 0
    outer loop
      vertex 18.75 29.577 29.561
      vertex 18.75 31.1222 16.8523
      vertex 18.75 42.65 2
    endloop
  endfacet
  facet normal 1 0 0
    outer loop
      vertex 18.75 27.1083 26.1631
      vertex 18.75 29.9259 17.9294
      vertex 18.75 31.1222 16.8523
    endloop
  endfacet
  facet normal 1 0 0
    outer loop
      vertex 18.75 31.1222 16.8523
      vertex 18.75 32.0684 15.55
      vertex 18.75 42.65 2
    endloop
  endfacet
  facet normal 1 0 0
    outer loop
      vertex 18.75 29.9259 5.47057
      vertex 18.75 28.5319 4.6657
      vertex 18.75 42.65 2
    endloop
  endfacet
  facet normal 1 0 0
    outer loop
      vertex 18.75 28.5319 4.6657
      vertex 18.75 27.0009 4.16826
      vertex 18.75 42.65 2
    endloop
  endfacet
  facet normal 1 0 0
    outer loop
      vertex 18.75 25.4 4
      vertex 18.75 8.15 2
      vertex 18.75 27.0009 4.16826
    endloop
  endfacet
  facet normal 1 0 0
    outer loop
      vertex 18.75 23.7991 4.16826
      vertex 18.75 22.2681 4.6657
      vertex 18.75 8.15 2
    endloop
  endfacet
  facet normal 1 0 0
    outer loop
      vertex 18.75 21.223 30.439
      vertex 18.75 18.8 33.8105
      vertex 18.75 21.223 29.561
    endloop
  endfacet
  facet normal 1 0 0
    outer loop
      vertex 18.75 20.8741 5.47057
      vertex 18.75 8.15 2
      vertex 18.75 22.2681 4.6657
    endloop
  endfacet
  facet normal 1 0 0
    outer loop
      vertex 18.75 19.6778 6.54769
      vertex 18.75 8.15 2
      vertex 18.75 20.8741 5.47057
    endloop
  endfacet
  facet normal 1 0 0
    outer loop
      vertex 18.75 18.7316 7.85
      vertex 18.75 8.15 2
      vertex 18.75 19.6778 6.54769
    endloop
  endfacet
  facet normal 1 0 0
    outer loop
      vertex 18.75 18.0769 9.32057
      vertex 18.75 8.15 2
      vertex 18.75 18.7316 7.85
    endloop
  endfacet
  facet normal 1 0 0
    outer loop
      vertex 18.75 17.7422 10.8951
      vertex 18.75 8.15 2
      vertex 18.75 18.0769 9.32057
    endloop
  endfacet
  facet normal 1 0 0
    outer loop
      vertex 18.75 29.577 30.439
      vertex 18.75 29.577 29.561
      vertex 18.75 42.65 2
    endloop
  endfacet
  facet normal 1 0 0
    outer loop
      vertex 18.75 23.6917 26.1631
      vertex 18.75 22.9313 26.6021
      vertex 18.75 25.4 19.4
    endloop
  endfacet
  facet normal 1 0 0
    outer loop
      vertex 18.75 21.7627 32.1
      vertex 18.75 18.8 33.8105
      vertex 18.75 21.4056 31.2979
    endloop
  endfacet
  facet normal 1 0 0
    outer loop
      vertex 18.75 42.65 76
      vertex 18.75 8.15 76
      vertex 18.75 25.4 45.242
    endloop
  endfacet
  facet normal 1 0 0
    outer loop
      vertex 18.75 25.4 25.8
      vertex 18.75 24.5268 25.8918
      vertex 18.75 27.0009 19.2317
    endloop
  endfacet
  facet normal 1 0 0
    outer loop
      vertex 18.75 42.65 76
      vertex 18.75 25.4 45.242
      vertex 18.75 32 41.4315
    endloop
  endfacet
  facet normal 1 0 0
    outer loop
      vertex 18.75 42.65 76
      vertex 18.75 32 41.4315
      vertex 18.75 42.65 2
    endloop
  endfacet
  facet normal 1 0 0
    outer loop
      vertex 18.75 32 41.4315
      vertex 18.75 32 33.8105
      vertex 18.75 42.65 2
    endloop
  endfacet
  facet normal 1 0 0
    outer loop
      vertex 18.75 29.0373 32.1
      vertex 18.75 29.3944 31.2979
      vertex 18.75 42.65 2
    endloop
  endfacet
  facet normal 1 0 0
    outer loop
      vertex 18.75 29.3944 31.2979
      vertex 18.75 29.577 30.439
      vertex 18.75 42.65 2
    endloop
  endfacet
  facet normal 1 0 0
    outer loop
      vertex 18.75 29.3944 28.7021
      vertex 18.75 31.1222 16.8523
      vertex 18.75 29.577 29.561
    endloop
  endfacet
  facet normal 1 0 0
    outer loop
      vertex 18.75 29.0373 27.9
      vertex 18.75 31.1222 16.8523
      vertex 18.75 29.3944 28.7021
    endloop
  endfacet
  facet normal 1 0 0
    outer loop
      vertex 18.75 28.5212 27.1897
      vertex 18.75 31.1222 16.8523
      vertex 18.75 29.0373 27.9
    endloop
  endfacet
  facet normal 1 0 0
    outer loop
      vertex 18.75 27.8687 26.6021
      vertex 18.75 31.1222 16.8523
      vertex 18.75 28.5212 27.1897
    endloop
  endfacet
  facet normal 1 0 0
    outer loop
      vertex 18.75 23.6917 26.1631
      vertex 18.75 25.4 19.4
      vertex 18.75 24.5268 25.8918
    endloop
  endfacet
  facet normal 1 0 0
    outer loop
      vertex 18.75 21.4056 31.2979
      vertex 18.75 18.8 33.8105
      vertex 18.75 21.223 30.439
    endloop
  endfacet
  facet normal 1 0 0
    outer loop
      vertex 18.75 22.2788 27.1897
      vertex 18.75 23.7991 19.2317
      vertex 18.75 22.9313 26.6021
    endloop
  endfacet
  facet normal 1 0 0
    outer loop
      vertex 18.75 21.7627 27.9
      vertex 18.75 23.7991 19.2317
      vertex 18.75 22.2788 27.1897
    endloop
  endfacet
  facet normal 1 0 0
    outer loop
      vertex 18.75 21.4056 28.7021
      vertex 18.75 23.7991 19.2317
      vertex 18.75 21.7627 27.9
    endloop
  endfacet
  facet normal 1 0 0
    outer loop
      vertex 18.75 27.8687 26.6021
      vertex 18.75 27.1083 26.1631
      vertex 18.75 31.1222 16.8523
    endloop
  endfacet
  facet normal 1 0 0
    outer loop
      vertex 18.75 27.1083 26.1631
      vertex 18.75 26.2732 25.8918
      vertex 18.75 29.9259 17.9294
    endloop
  endfacet
  facet normal 1 0 0
    outer loop
      vertex 18.75 8.15 76
      vertex 18.75 22.2681 18.7343
      vertex 18.75 18.8 33.8105
    endloop
  endfacet
  facet normal 1 0 0
    outer loop
      vertex 18.75 32.0684 15.55
      vertex 18.75 32.7231 14.0794
      vertex 18.75 42.65 2
    endloop
  endfacet
  facet normal 1 0 0
    outer loop
      vertex 18.75 32.7231 14.0794
      vertex 18.75 33.0578 12.5049
      vertex 18.75 42.65 2
    endloop
  endfacet
  facet normal 1 0 0
    outer loop
      vertex 18.75 32.7231 9.32057
      vertex 18.75 32.0684 7.85
      vertex 18.75 42.65 2
    endloop
  endfacet
  facet normal 1 0 0
    outer loop
      vertex 18.75 21.4056 28.7021
      vertex 18.75 18.8 33.8105
      vertex 18.75 23.7991 19.2317
    endloop
  endfacet
  facet normal 1 0 0
    outer loop
      vertex 18.75 21.223 29.561
      vertex 18.75 18.8 33.8105
      vertex 18.75 21.4056 28.7021
    endloop
  endfacet
  facet normal 1 0 0
    outer loop
      vertex 18.75 18.8 33.8105
      vertex 18.75 18.8 41.4315
      vertex 18.75 8.15 76
    endloop
  endfacet
  facet normal 1 0 0
    outer loop
      vertex 18.75 26.2732 25.8918
      vertex 18.75 25.4 25.8
      vertex 18.75 28.5319 18.7343
    endloop
  endfacet
  facet normal 1 0 0
    outer loop
      vertex 18.75 18.8 41.4315
      vertex 18.75 25.4 45.242
      vertex 18.75 8.15 76
    endloop
  endfacet
  facet normal 1 0 0
    outer loop
      vertex 3 12.15 76
      vertex 3 12.2226 59.135
      vertex 3 12.7985 61.8445
    endloop
  endfacet
  facet normal 1 0 0
    outer loop
      vertex 3 15.5533 66.616
      vertex 3 17.9 76
      vertex 3 13.9252 64.375
    endloop
  endfacet
  facet normal 1 0 0
    outer loop
      vertex 3 13.9252 64.375
      vertex 3 17.9 76
      vertex 3 12.7985 61.8445
    endloop
  endfacet
  facet normal 1 0 0
    outer loop
      vertex 3 12.2226 57.75
      vertex 3 12.2226 59.135
      vertex 3 12.15 76
    endloop
  endfacet
  facet normal 1 0 0
    outer loop
      vertex 3 17.6118 68.4695
      vertex 3 17.9 76
      vertex 3 15.5533 66.616
    endloop
  endfacet
  facet normal 1 0 0
    outer loop
      vertex 3 17.9 68.6358
      vertex 3 17.9 76
      vertex 3 17.6118 68.4695
    endloop
  endfacet
  facet normal 1 0 0
    outer loop
      vertex 3 17.9 76
      vertex 3 12.15 76
      vertex 3 12.7985 61.8445
    endloop
  endfacet
  facet normal 1 0 0
    outer loop
      vertex 3 12.15 76
      vertex 3 12.15 57.75
      vertex 3 12.2226 57.75
    endloop
  endfacet
  facet normal 0 1 0
    outer loop
      vertex 5.2 12.15 76
      vertex 5.2 12.15 57.75
      vertex 3 12.15 76
    endloop
  endfacet
  facet normal 0 1 0
    outer loop
      vertex 3 12.15 76
      vertex 5.2 12.15 57.75
      vertex 3 12.15 57.75
    endloop
  endfacet
  facet normal -1 0 0
    outer loop
      vertex 5.2 38.65 76
      vertex 5.2 38.65 57.75
      vertex 5.2 12.15 76
    endloop
  endfacet
  facet normal -1 0 0
    outer loop
      vertex 5.2 12.15 76
      vertex 5.2 38.65 57.75
      vertex 5.2 38.5774 57.75
    endloop
  endfacet
  facet normal -1 0 0
    outer loop
      vertex 5.2 12.15 76
      vertex 5.2 12.2226 57.75
      vertex 5.2 12.15 57.75
    endloop
  endfacet
  facet normal -1 0 0
    outer loop
      vertex 5.2 12.2226 57.75
      vertex 5.2 12.15 76
      vertex 5.2 38.5774 57.75
    endloop
  endfacet
  facet normal 0 -1 0
    outer loop
      vertex 5.2 38.65 57.75
      vertex 5.2 38.65 76
      vertex 3 38.65 76
    endloop
  endfacet
  facet normal 0 -1 0
    outer loop
      vertex 3 38.65 57.75
      vertex 5.2 38.65 57.75
      vertex 3 38.65 76
    endloop
  endfacet
  facet normal 1 0 0
    outer loop
      vertex 3 38.65 76
      vertex 3 35.2467 66.616
      vertex 3 36.8748 64.375
    endloop
  endfacet
  facet normal 1 0 0
    outer loop
      vertex 3 38.5774 59.135
      vertex 3 38.65 76
      vertex 3 38.0015 61.8445
    endloop
  endfacet
  facet normal 1 0 0
    outer loop
      vertex 3 38.0015 61.8445
      vertex 3 38.65 76
      vertex 3 36.8748 64.375
    endloop
  endfacet
  facet normal 1 0 0
    outer loop
      vertex 3 33.1882 68.4695
      vertex 3 35.2467 66.616
      vertex 3 38.65 76
    endloop
  endfacet
  facet normal 1 0 0
    outer loop
      vertex 3 38.5774 57.75
      vertex 3 38.65 57.75
      vertex 3 38.5774 59.135
    endloop
  endfacet
  facet normal 1 0 0
    outer loop
      vertex 3 38.65 57.75
      vertex 3 38.65 76
      vertex 3 38.5774 59.135
    endloop
  endfacet
  facet normal 1 0 0
    outer loop
      vertex 3 38.65 76
      vertex 3 32.9 76
      vertex 3 33.1882 68.4695
    endloop
  endfacet
  facet normal 1 0 0
    outer loop
      vertex 3 32.9 76
      vertex 3 32.9 68.6358
      vertex 3 33.1882 68.4695
    endloop
  endfacet
  facet normal 1 0 1.77321e-016
    outer loop
      vertex 3 17.6118 68.4695
      vertex 3 15.5533 66.616
      vertex 3 13.9252 64.375
    endloop
  endfacet
  facet normal 1 0 1.77321e-016
    outer loop
      vertex 3 12.2226 59.135
      vertex 3 17.6118 68.4695
      vertex 3 12.7985 61.8445
    endloop
  endfacet
  facet normal 1 0 1.77321e-016
    outer loop
      vertex 3 12.7985 61.8445
      vertex 3 17.6118 68.4695
      vertex 3 13.9252 64.375
    endloop
  endfacet
  facet normal 1 0 1.77321e-016
    outer loop
      vertex 3 12.2226 57.75
      vertex 3 17.6118 68.4695
      vertex 3 12.2226 59.135
    endloop
  endfacet
  facet normal 1 0 1.77321e-016
    outer loop
      vertex 3 12.2226 56.365
      vertex 3 17.6118 68.4695
      vertex 3 12.2226 57.75
    endloop
  endfacet
  facet normal 1 0 1.77321e-016
    outer loop
      vertex 3 12.7985 53.6555
      vertex 3 17.6118 68.4695
      vertex 3 12.2226 56.365
    endloop
  endfacet
  facet normal 1 0 1.77321e-016
    outer loop
      vertex 3 13.9252 51.125
      vertex 3 17.6118 68.4695
      vertex 3 12.7985 53.6555
    endloop
  endfacet
  facet normal 1 0 1.77321e-016
    outer loop
      vertex 3 15.5533 48.884
      vertex 3 17.6118 68.4695
      vertex 3 13.9252 51.125
    endloop
  endfacet
  facet normal 1 0 1.77321e-016
    outer loop
      vertex 3 17.6118 47.0305
      vertex 3 17.6118 68.4695
      vertex 3 15.5533 48.884
    endloop
  endfacet
  facet normal 1 0 1.77321e-016
    outer loop
      vertex 3 17.9 57.75
      vertex 3 17.6118 68.4695
      vertex 3 17.6118 47.0305
    endloop
  endfacet
  facet normal 1 0 1.77321e-016
    outer loop
      vertex 3 17.9411 57.75
      vertex 3 17.9 57.75
      vertex 3 17.9411 56.966
    endloop
  endfacet
  facet normal 1 0 1.77321e-016
    outer loop
      vertex 3 19.8264 52.7315
      vertex 3 18.9048 54
      vertex 3 20.0107 45.6455
    endloop
  endfacet
  facet normal 1 0 1.77321e-016
    outer loop
      vertex 3 22.3495 50.8984
      vertex 3 20.9916 51.6824
      vertex 3 22.6452 44.7895
    endloop
  endfacet
  facet normal 1 0 1.77321e-016
    outer loop
      vertex 3 23.8407 50.4139
      vertex 3 22.3495 50.8984
      vertex 3 25.4 44.5
    endloop
  endfacet
  facet normal 1 0 1.77321e-016
    outer loop
      vertex 3 26.9593 50.4139
      vertex 3 25.4 50.25
      vertex 3 28.1548 44.7895
    endloop
  endfacet
  facet normal 1 0 1.77321e-016
    outer loop
      vertex 3 28.4505 50.8984
      vertex 3 26.9593 50.4139
      vertex 3 30.7893 45.6455
    endloop
  endfacet
  facet normal 1 0 1.77321e-016
    outer loop
      vertex 3 30.9736 52.7315
      vertex 3 29.8084 51.6824
      vertex 3 33.1882 47.0305
    endloop
  endfacet
  facet normal 1 0 1.77321e-016
    outer loop
      vertex 3 31.8952 54
      vertex 3 30.9736 52.7315
      vertex 3 35.2467 48.884
    endloop
  endfacet
  facet normal 1 0 1.77321e-016
    outer loop
      vertex 3 32.5329 55.4324
      vertex 3 31.8952 54
      vertex 3 36.8748 51.125
    endloop
  endfacet
  facet normal 1 0 1.77321e-016
    outer loop
      vertex 3 32.8589 57.75
      vertex 3 32.8589 56.966
      vertex 3 38.0015 53.6555
    endloop
  endfacet
  facet normal 1 0 1.77321e-016
    outer loop
      vertex 3 38.5774 56.365
      vertex 3 32.9 57.75
      vertex 3 38.0015 53.6555
    endloop
  endfacet
  facet normal 1 0 1.77321e-016
    outer loop
      vertex 3 32.9 57.75
      vertex 3 32.8589 57.75
      vertex 3 38.0015 53.6555
    endloop
  endfacet
  facet normal 1 0 1.77321e-016
    outer loop
      vertex 3 38.0015 53.6555
      vertex 3 32.8589 56.966
      vertex 3 36.8748 51.125
    endloop
  endfacet
  facet normal 1 0 1.77321e-016
    outer loop
      vertex 3 32.8589 56.966
      vertex 3 32.5329 55.4324
      vertex 3 36.8748 51.125
    endloop
  endfacet
  facet normal 1 0 1.77321e-016
    outer loop
      vertex 3 36.8748 51.125
      vertex 3 31.8952 54
      vertex 3 35.2467 48.884
    endloop
  endfacet
  facet normal 1 0 1.77321e-016
    outer loop
      vertex 3 35.2467 48.884
      vertex 3 30.9736 52.7315
      vertex 3 33.1882 47.0305
    endloop
  endfacet
  facet normal 1 0 1.77321e-016
    outer loop
      vertex 3 33.1882 47.0305
      vertex 3 29.8084 51.6824
      vertex 3 30.7893 45.6455
    endloop
  endfacet
  facet normal 1 0 1.77321e-016
    outer loop
      vertex 3 29.8084 51.6824
      vertex 3 28.4505 50.8984
      vertex 3 30.7893 45.6455
    endloop
  endfacet
  facet normal 1 0 1.77321e-016
    outer loop
      vertex 3 30.7893 45.6455
      vertex 3 26.9593 50.4139
      vertex 3 28.1548 44.7895
    endloop
  endfacet
  facet normal 1 0 1.77321e-016
    outer loop
      vertex 3 28.1548 44.7895
      vertex 3 25.4 50.25
      vertex 3 25.4 44.5
    endloop
  endfacet
  facet normal 1 0 1.77321e-016
    outer loop
      vertex 3 25.4 50.25
      vertex 3 23.8407 50.4139
      vertex 3 25.4 44.5
    endloop
  endfacet
  facet normal 1 0 1.77321e-016
    outer loop
      vertex 3 25.4 44.5
      vertex 3 22.3495 50.8984
      vertex 3 22.6452 44.7895
    endloop
  endfacet
  facet normal 1 0 1.77321e-016
    outer loop
      vertex 3 22.6452 44.7895
      vertex 3 20.9916 51.6824
      vertex 3 20.0107 45.6455
    endloop
  endfacet
  facet normal 1 0 1.77321e-016
    outer loop
      vertex 3 20.9916 51.6824
      vertex 3 19.8264 52.7315
      vertex 3 20.0107 45.6455
    endloop
  endfacet
  facet normal 1 0 1.77321e-016
    outer loop
      vertex 3 20.0107 45.6455
      vertex 3 18.9048 54
      vertex 3 17.6118 47.0305
    endloop
  endfacet
  facet normal 1 0 1.77321e-016
    outer loop
      vertex 3 18.9048 54
      vertex 3 18.2671 55.4324
      vertex 3 17.6118 47.0305
    endloop
  endfacet
  facet normal 1 0 1.77321e-016
    outer loop
      vertex 3 18.2671 55.4324
      vertex 3 17.9411 56.966
      vertex 3 17.6118 47.0305
    endloop
  endfacet
  facet normal 1 0 1.77321e-016
    outer loop
      vertex 3 17.9411 56.966
      vertex 3 17.9 57.75
      vertex 3 17.6118 47.0305
    endloop
  endfacet
  facet normal 1 0 1.77321e-016
    outer loop
      vertex 3 32.9 68.6358
      vertex 3 35.2467 66.616
      vertex 3 33.1882 68.4695
    endloop
  endfacet
  facet normal 1 0 1.77321e-016
    outer loop
      vertex 3 32.9 68.6358
      vertex 3 36.8748 64.375
      vertex 3 35.2467 66.616
    endloop
  endfacet
  facet normal 1 0 1.77321e-016
    outer loop
      vertex 3 32.9 68.6358
      vertex 3 38.0015 61.8445
      vertex 3 36.8748 64.375
    endloop
  endfacet
  facet normal 1 0 1.77321e-016
    outer loop
      vertex 3 32.9 68.6358
      vertex 3 38.5774 59.135
      vertex 3 38.0015 61.8445
    endloop
  endfacet
  facet normal 1 0 1.77321e-016
    outer loop
      vertex 3 32.9 68.6358
      vertex 3 38.5774 57.75
      vertex 3 38.5774 59.135
    endloop
  endfacet
  facet normal 1 0 1.77321e-016
    outer loop
      vertex 3 32.9 68.6358
      vertex 3 38.5774 56.365
      vertex 3 38.5774 57.75
    endloop
  endfacet
  facet normal 1 0 1.77321e-016
    outer loop
      vertex 3 32.9 68.6358
      vertex 3 32.9 57.75
      vertex 3 38.5774 56.365
    endloop
  endfacet
  facet normal 1 0 1.77321e-016
    outer loop
      vertex 3 17.9 57.75
      vertex 3 17.9 68.6358
      vertex 3 17.6118 68.4695
    endloop
  endfacet
  facet normal 1 0 1.77321e-016
    outer loop
      vertex 8.199 21.4056 28.7021
      vertex 8.199 21.223 29.561
      vertex 8.199 18.8 33.8105
    endloop
  endfacet
  facet normal 1 0 1.77321e-016
    outer loop
      vertex 8.199 21.223 30.439
      vertex 8.199 21.4056 31.2979
      vertex 8.199 18.8 33.8105
    endloop
  endfacet
  facet normal 1 0 1.77321e-016
    outer loop
      vertex 8.199 21.223 29.561
      vertex 8.199 21.223 30.439
      vertex 8.199 18.8 33.8105
    endloop
  endfacet
  facet normal 1 0 1.77321e-016
    outer loop
      vertex 8.199 23.6917 26.1631
      vertex 8.199 22.9313 26.6021
      vertex 8.199 25.4 22.379
    endloop
  endfacet
  facet normal 1 0 1.77321e-016
    outer loop
      vertex 8.199 29.3944 31.2979
      vertex 8.199 29.577 30.439
      vertex 8.199 32 26.1895
    endloop
  endfacet
  facet normal 1 0 1.77321e-016
    outer loop
      vertex 8.199 25.4 34.2
      vertex 8.199 25.4 37.621
      vertex 8.199 18.8 33.8105
    endloop
  endfacet
  facet normal 1 0 1.77321e-016
    outer loop
      vertex 8.199 24.5268 34.1082
      vertex 8.199 25.4 34.2
      vertex 8.199 18.8 33.8105
    endloop
  endfacet
  facet normal 1 0 1.77321e-016
    outer loop
      vertex 8.199 32 33.8105
      vertex 8.199 25.4 37.621
      vertex 8.199 25.4 34.2
    endloop
  endfacet
  facet normal 1 0 1.77321e-016
    outer loop
      vertex 8.199 32 33.8105
      vertex 8.199 25.4 34.2
      vertex 8.199 26.2732 34.1082
    endloop
  endfacet
  facet normal 1 0 1.77321e-016
    outer loop
      vertex 8.199 32 33.8105
      vertex 8.199 26.2732 34.1082
      vertex 8.199 27.1083 33.8369
    endloop
  endfacet
  facet normal 1 0 1.77321e-016
    outer loop
      vertex 8.199 28.5212 32.8103
      vertex 8.199 32 33.8105
      vertex 8.199 27.8687 33.3979
    endloop
  endfacet
  facet normal 1 0 1.77321e-016
    outer loop
      vertex 8.199 29.0373 32.1
      vertex 8.199 32 33.8105
      vertex 8.199 28.5212 32.8103
    endloop
  endfacet
  facet normal 1 0 1.77321e-016
    outer loop
      vertex 8.199 32 26.1895
      vertex 8.199 32 33.8105
      vertex 8.199 29.0373 32.1
    endloop
  endfacet
  facet normal 1 0 1.77321e-016
    outer loop
      vertex 8.199 29.577 30.439
      vertex 8.199 29.577 29.561
      vertex 8.199 32 26.1895
    endloop
  endfacet
  facet normal 1 0 1.77321e-016
    outer loop
      vertex 8.199 32 26.1895
      vertex 8.199 29.0373 32.1
      vertex 8.199 29.3944 31.2979
    endloop
  endfacet
  facet normal 1 0 1.77321e-016
    outer loop
      vertex 8.199 22.9313 33.3979
      vertex 8.199 23.6917 33.8369
      vertex 8.199 18.8 33.8105
    endloop
  endfacet
  facet normal 1 0 1.77321e-016
    outer loop
      vertex 8.199 32 26.1895
      vertex 8.199 29.577 29.561
      vertex 8.199 29.3944 28.7021
    endloop
  endfacet
  facet normal 1 0 1.77321e-016
    outer loop
      vertex 8.199 32 26.1895
      vertex 8.199 29.3944 28.7021
      vertex 8.199 29.0373 27.9
    endloop
  endfacet
  facet normal 1 0 1.77321e-016
    outer loop
      vertex 8.199 25.4 22.379
      vertex 8.199 32 26.1895
      vertex 8.199 28.5212 27.1897
    endloop
  endfacet
  facet normal 1 0 1.77321e-016
    outer loop
      vertex 8.199 25.4 22.379
      vertex 8.199 28.5212 27.1897
      vertex 8.199 27.8687 26.6021
    endloop
  endfacet
  facet normal 1 0 1.77321e-016
    outer loop
      vertex 8.199 21.7627 32.1
      vertex 8.199 22.2788 32.8103
      vertex 8.199 18.8 33.8105
    endloop
  endfacet
  facet normal 1 0 1.77321e-016
    outer loop
      vertex 8.199 25.4 22.379
      vertex 8.199 27.8687 26.6021
      vertex 8.199 27.1083 26.1631
    endloop
  endfacet
  facet normal 1 0 1.77321e-016
    outer loop
      vertex 8.199 25.4 22.379
      vertex 8.199 27.1083 26.1631
      vertex 8.199 26.2732 25.8918
    endloop
  endfacet
  facet normal 1 0 1.77321e-016
    outer loop
      vertex 8.199 25.4 22.379
      vertex 8.199 26.2732 25.8918
      vertex 8.199 25.4 25.8
    endloop
  endfacet
  facet normal 1 0 1.77321e-016
    outer loop
      vertex 8.199 21.4056 31.2979
      vertex 8.199 21.7627 32.1
      vertex 8.199 18.8 33.8105
    endloop
  endfacet
  facet normal 1 0 1.77321e-016
    outer loop
      vertex 8.199 25.4 22.379
      vertex 8.199 25.4 25.8
      vertex 8.199 24.5268 25.8918
    endloop
  endfacet
  facet normal 1 0 1.77321e-016
    outer loop
      vertex 8.199 25.4 22.379
      vertex 8.199 24.5268 25.8918
      vertex 8.199 23.6917 26.1631
    endloop
  endfacet
  facet normal 1 0 1.77321e-016
    outer loop
      vertex 8.199 18.8 26.1895
      vertex 8.199 25.4 22.379
      vertex 8.199 22.9313 26.6021
    endloop
  endfacet
  facet normal 1 0 1.77321e-016
    outer loop
      vertex 8.199 18.8 26.1895
      vertex 8.199 22.9313 26.6021
      vertex 8.199 22.2788 27.1897
    endloop
  endfacet
  facet normal 1 0 1.77321e-016
    outer loop
      vertex 8.199 18.8 26.1895
      vertex 8.199 21.7627 27.9
      vertex 8.199 18.8 33.8105
    endloop
  endfacet
  facet normal 1 0 1.77321e-016
    outer loop
      vertex 8.199 18.8 26.1895
      vertex 8.199 22.2788 27.1897
      vertex 8.199 21.7627 27.9
    endloop
  endfacet
  facet normal 1 0 1.77321e-016
    outer loop
      vertex 8.199 21.7627 27.9
      vertex 8.199 21.4056 28.7021
      vertex 8.199 18.8 33.8105
    endloop
  endfacet
  facet normal 1 0 1.77321e-016
    outer loop
      vertex 8.199 22.2788 32.8103
      vertex 8.199 22.9313 33.3979
      vertex 8.199 18.8 33.8105
    endloop
  endfacet
  facet normal 1 0 1.77321e-016
    outer loop
      vertex 8.199 23.6917 33.8369
      vertex 8.199 24.5268 34.1082
      vertex 8.199 18.8 33.8105
    endloop
  endfacet
  facet normal 1 0 1.77321e-016
    outer loop
      vertex 8.199 27.1083 33.8369
      vertex 8.199 27.8687 33.3979
      vertex 8.199 32 33.8105
    endloop
  endfacet
  facet normal 1 0 1.77321e-016
    outer loop
      vertex 8.199 29.0373 27.9
      vertex 8.199 28.5212 27.1897
      vertex 8.199 32 26.1895
    endloop
  endfacet
  facet normal 0 1 0
    outer loop
      vertex 14.749 18.8 41.4315
      vertex 18.75 18.8 41.4315
      vertex 18.75 18.8 33.8105
    endloop
  endfacet
  facet normal 0 1 0
    outer loop
      vertex 14.749 18.8 41.4315
      vertex 18.75 18.8 33.8105
      vertex 14.751 18.8 33.8105
    endloop
  endfacet
  facet normal 0 1 0
    outer loop
      vertex 8.199 18.8 33.8105
      vertex 8.199 18.8 41.4315
      vertex 14.749 18.8 41.4315
    endloop
  endfacet
  facet normal 0 1 0
    outer loop
      vertex 8.199 18.8 33.8105
      vertex 14.749 18.8 41.4315
      vertex 14.751 18.8 33.8105
    endloop
  endfacet
  facet normal 1.11022e-016 0.866025 -0.5
    outer loop
      vertex 14.751 18.8 33.8105
      vertex 18.75 18.8 33.8105
      vertex 14.749 18.8 33.8105
    endloop
  endfacet
  facet normal 0 1 0
    outer loop
      vertex 8.199 18.8 33.8105
      vertex 14.749 18.8 33.8105
      vertex 14.751 18.8 33.8105
    endloop
  endfacet
  facet normal 0 1 0
    outer loop
      vertex 14.749 18.8 33.8105
      vertex 18.75 18.8 33.8105
      vertex 14.751 18.8 33.8105
    endloop
  endfacet
  facet normal -1.92296e-016 0.5 0.866025
    outer loop
      vertex 18.75 18.8 33.8105
      vertex 18.75 21.7627 32.1
      vertex 14.751 21.7627 32.1
    endloop
  endfacet
  facet normal -1.92296e-016 0.5 0.866025
    outer loop
      vertex 14.751 18.8 33.8105
      vertex 18.75 18.8 33.8105
      vertex 14.751 21.7627 32.1
    endloop
  endfacet
  facet normal 9.03135e-017 0.913546 -0.406736
    outer loop
      vertex 18.75 21.4056 31.2979
      vertex 14.751 21.4056 31.2979
      vertex 18.75 21.7627 32.1
    endloop
  endfacet
  facet normal 9.03135e-017 0.913546 -0.406736
    outer loop
      vertex 18.75 21.7627 32.1
      vertex 14.751 21.4056 31.2979
      vertex 14.751 21.7627 32.1
    endloop
  endfacet
  facet normal 4.61658e-017 0.978147 -0.207912
    outer loop
      vertex 18.75 21.223 30.439
      vertex 14.751 21.223 30.439
      vertex 18.75 21.4056 31.2979
    endloop
  endfacet
  facet normal 4.61658e-017 0.978147 -0.207912
    outer loop
      vertex 18.75 21.4056 31.2979
      vertex 14.751 21.223 30.439
      vertex 14.751 21.4056 31.2979
    endloop
  endfacet
  facet normal 0 1 0
    outer loop
      vertex 18.75 21.223 29.561
      vertex 14.751 21.223 29.561
      vertex 18.75 21.223 30.439
    endloop
  endfacet
  facet normal 0 1 0
    outer loop
      vertex 18.75 21.223 30.439
      vertex 14.751 21.223 29.561
      vertex 14.751 21.223 30.439
    endloop
  endfacet
  facet normal -4.61658e-017 0.978147 0.207912
    outer loop
      vertex 18.75 21.4056 28.7021
      vertex 14.751 21.4056 28.7021
      vertex 18.75 21.223 29.561
    endloop
  endfacet
  facet normal -4.61658e-017 0.978147 0.207912
    outer loop
      vertex 18.75 21.223 29.561
      vertex 14.751 21.4056 28.7021
      vertex 14.751 21.223 29.561
    endloop
  endfacet
  facet normal -9.03135e-017 0.913546 0.406736
    outer loop
      vertex 18.75 21.7627 27.9
      vertex 14.751 21.7627 27.9
      vertex 18.75 21.4056 28.7021
    endloop
  endfacet
  facet normal -9.03135e-017 0.913546 0.406736
    outer loop
      vertex 18.75 21.4056 28.7021
      vertex 14.751 21.7627 27.9
      vertex 14.751 21.4056 28.7021
    endloop
  endfacet
  facet normal -1.30515e-016 0.809017 0.587785
    outer loop
      vertex 18.75 22.2788 27.1897
      vertex 14.751 22.2788 27.1897
      vertex 18.75 21.7627 27.9
    endloop
  endfacet
  facet normal -1.30515e-016 0.809017 0.587785
    outer loop
      vertex 18.75 21.7627 27.9
      vertex 14.751 22.2788 27.1897
      vertex 14.751 21.7627 27.9
    endloop
  endfacet
  facet normal -1.65011e-016 0.66913 0.743145
    outer loop
      vertex 18.75 22.2788 27.1897
      vertex 18.75 22.9313 26.6021
      vertex 14.751 22.9313 26.6021
    endloop
  endfacet
  facet normal -1.65011e-016 0.66913 0.743145
    outer loop
      vertex 14.751 22.2788 27.1897
      vertex 18.75 22.2788 27.1897
      vertex 14.751 22.9313 26.6021
    endloop
  endfacet
  facet normal -1.92296e-016 0.5 0.866025
    outer loop
      vertex 18.75 22.9313 26.6021
      vertex 18.75 23.6917 26.1631
      vertex 14.751 23.6917 26.1631
    endloop
  endfacet
  facet normal -1.92296e-016 0.5 0.866025
    outer loop
      vertex 14.751 22.9313 26.6021
      vertex 18.75 22.9313 26.6021
      vertex 14.751 23.6917 26.1631
    endloop
  endfacet
  facet normal -2.11177e-016 0.309017 0.951057
    outer loop
      vertex 18.75 23.6917 26.1631
      vertex 18.75 24.5268 25.8918
      vertex 14.751 24.5268 25.8918
    endloop
  endfacet
  facet normal -2.11177e-016 0.309017 0.951057
    outer loop
      vertex 14.751 23.6917 26.1631
      vertex 18.75 23.6917 26.1631
      vertex 14.751 24.5268 25.8918
    endloop
  endfacet
  facet normal -2.20828e-016 0.104528 0.994522
    outer loop
      vertex 18.75 24.5268 25.8918
      vertex 18.75 25.4 25.8
      vertex 14.751 25.4 25.8
    endloop
  endfacet
  facet normal -2.20828e-016 0.104528 0.994522
    outer loop
      vertex 14.751 24.5268 25.8918
      vertex 18.75 24.5268 25.8918
      vertex 14.751 25.4 25.8
    endloop
  endfacet
  facet normal -2.20828e-016 -0.104528 0.994522
    outer loop
      vertex 14.751 25.4 25.8
      vertex 18.75 25.4 25.8
      vertex 18.75 26.2732 25.8918
    endloop
  endfacet
  facet normal -2.20828e-016 -0.104528 0.994522
    outer loop
      vertex 14.751 26.2732 25.8918
      vertex 14.751 25.4 25.8
      vertex 18.75 26.2732 25.8918
    endloop
  endfacet
  facet normal -2.11177e-016 -0.309017 0.951057
    outer loop
      vertex 14.751 26.2732 25.8918
      vertex 18.75 26.2732 25.8918
      vertex 18.75 27.1083 26.1631
    endloop
  endfacet
  facet normal -2.11177e-016 -0.309017 0.951057
    outer loop
      vertex 14.751 27.1083 26.1631
      vertex 14.751 26.2732 25.8918
      vertex 18.75 27.1083 26.1631
    endloop
  endfacet
  facet normal -1.92296e-016 -0.5 0.866025
    outer loop
      vertex 14.751 27.1083 26.1631
      vertex 18.75 27.1083 26.1631
      vertex 18.75 27.8687 26.6021
    endloop
  endfacet
  facet normal -1.92296e-016 -0.5 0.866025
    outer loop
      vertex 14.751 27.8687 26.6021
      vertex 14.751 27.1083 26.1631
      vertex 18.75 27.8687 26.6021
    endloop
  endfacet
  facet normal -1.65011e-016 -0.66913 0.743145
    outer loop
      vertex 14.751 27.8687 26.6021
      vertex 18.75 27.8687 26.6021
      vertex 18.75 28.5212 27.1897
    endloop
  endfacet
  facet normal -1.65011e-016 -0.66913 0.743145
    outer loop
      vertex 14.751 28.5212 27.1897
      vertex 14.751 27.8687 26.6021
      vertex 18.75 28.5212 27.1897
    endloop
  endfacet
  facet normal -1.30515e-016 -0.809017 0.587785
    outer loop
      vertex 14.751 28.5212 27.1897
      vertex 18.75 28.5212 27.1897
      vertex 18.75 29.0373 27.9
    endloop
  endfacet
  facet normal -1.30515e-016 -0.809017 0.587785
    outer loop
      vertex 14.751 29.0373 27.9
      vertex 14.751 28.5212 27.1897
      vertex 18.75 29.0373 27.9
    endloop
  endfacet
  facet normal -9.03135e-017 -0.913546 0.406736
    outer loop
      vertex 14.751 29.0373 27.9
      vertex 18.75 29.0373 27.9
      vertex 18.75 29.3944 28.7021
    endloop
  endfacet
  facet normal -9.03135e-017 -0.913546 0.406736
    outer loop
      vertex 14.751 29.3944 28.7021
      vertex 14.751 29.0373 27.9
      vertex 18.75 29.3944 28.7021
    endloop
  endfacet
  facet normal -4.61658e-017 -0.978147 0.207912
    outer loop
      vertex 14.751 29.3944 28.7021
      vertex 18.75 29.3944 28.7021
      vertex 18.75 29.577 29.561
    endloop
  endfacet
  facet normal -4.61658e-017 -0.978147 0.207912
    outer loop
      vertex 14.751 29.577 29.561
      vertex 14.751 29.3944 28.7021
      vertex 18.75 29.577 29.561
    endloop
  endfacet
  facet normal 0 -1 0
    outer loop
      vertex 14.751 29.577 29.561
      vertex 18.75 29.577 29.561
      vertex 18.75 29.577 30.439
    endloop
  endfacet
  facet normal 0 -1 0
    outer loop
      vertex 14.751 29.577 30.439
      vertex 14.751 29.577 29.561
      vertex 18.75 29.577 30.439
    endloop
  endfacet
  facet normal 4.61658e-017 -0.978147 -0.207912
    outer loop
      vertex 14.751 29.577 30.439
      vertex 18.75 29.577 30.439
      vertex 18.75 29.3944 31.2979
    endloop
  endfacet
  facet normal 4.61658e-017 -0.978147 -0.207912
    outer loop
      vertex 14.751 29.3944 31.2979
      vertex 14.751 29.577 30.439
      vertex 18.75 29.3944 31.2979
    endloop
  endfacet
  facet normal 9.03135e-017 -0.913546 -0.406736
    outer loop
      vertex 14.751 29.3944 31.2979
      vertex 18.75 29.3944 31.2979
      vertex 18.75 29.0373 32.1
    endloop
  endfacet
  facet normal 9.03135e-017 -0.913546 -0.406736
    outer loop
      vertex 14.751 29.0373 32.1
      vertex 14.751 29.3944 31.2979
      vertex 18.75 29.0373 32.1
    endloop
  endfacet
  facet normal -1.92296e-016 -0.5 0.866025
    outer loop
      vertex 14.751 29.0373 32.1
      vertex 18.75 29.0373 32.1
      vertex 18.75 32 33.8105
    endloop
  endfacet
  facet normal -1.92296e-016 -0.5 0.866025
    outer loop
      vertex 14.751 32 33.8105
      vertex 14.751 29.0373 32.1
      vertex 18.75 32 33.8105
    endloop
  endfacet
  facet normal 0 -1 0
    outer loop
      vertex 8.199 32 33.8105
      vertex 14.751 32 33.8105
      vertex 18.75 32 33.8105
    endloop
  endfacet
  facet normal 0 -1 0
    outer loop
      vertex 14.749 32 33.8105
      vertex 8.199 32 33.8105
      vertex 18.75 32 33.8105
    endloop
  endfacet
  facet normal 1.11022e-016 -0.866025 -0.5
    outer loop
      vertex 14.751 32 33.8105
      vertex 14.749 32 33.8105
      vertex 18.75 32 33.8105
    endloop
  endfacet
  facet normal 0 -1 0
    outer loop
      vertex 18.75 32 41.4315
      vertex 14.751 32 33.8105
      vertex 18.75 32 33.8105
    endloop
  endfacet
  facet normal 0 -1 0
    outer loop
      vertex 8.199 32 33.8105
      vertex 14.751 32 33.8105
      vertex 18.75 32 41.4315
    endloop
  endfacet
  facet normal 0 -1 0
    outer loop
      vertex 14.749 32 41.4315
      vertex 8.199 32 33.8105
      vertex 18.75 32 41.4315
    endloop
  endfacet
  facet normal 0 -1 0
    outer loop
      vertex 8.199 32 41.4315
      vertex 8.199 32 33.8105
      vertex 14.749 32 41.4315
    endloop
  endfacet
  facet normal 1.92296e-016 -0.5 -0.866025
    outer loop
      vertex 18.75 32 41.4315
      vertex 14.751 32 41.4315
      vertex 14.749 32 41.4315
    endloop
  endfacet
  facet normal 1.92296e-016 -0.5 -0.866025
    outer loop
      vertex 18.75 32 41.4315
      vertex 18.75 25.4 45.242
      vertex 14.751 32 41.4315
    endloop
  endfacet
  facet normal 1.92296e-016 -0.5 -0.866025
    outer loop
      vertex 14.751 32 41.4315
      vertex 18.75 25.4 45.242
      vertex 14.751 25.4 45.242
    endloop
  endfacet
  facet normal 1.92296e-016 0.5 -0.866025
    outer loop
      vertex 18.75 18.8 41.4315
      vertex 14.751 18.8 41.4315
      vertex 18.75 25.4 45.242
    endloop
  endfacet
  facet normal 1.92296e-016 0.5 -0.866025
    outer loop
      vertex 18.75 25.4 45.242
      vertex 14.751 18.8 41.4315
      vertex 14.751 25.4 45.242
    endloop
  endfacet
  facet normal 1.92296e-016 0.5 -0.866025
    outer loop
      vertex 14.751 18.8 41.4315
      vertex 18.75 18.8 41.4315
      vertex 14.749 18.8 41.4315
    endloop
  endfacet
  facet normal 0 1 0
    outer loop
      vertex 5.2 12.2226 57.75
      vertex 5.2 12.2226 56.365
      vertex 3 12.2226 56.365
    endloop
  endfacet
  facet normal 0 1 0
    outer loop
      vertex 5.2 12.2226 57.75
      vertex 3 12.2226 56.365
      vertex 3 12.2226 57.75
    endloop
  endfacet
  facet normal 0 0 1
    outer loop
      vertex 5.2 12.15 57.75
      vertex 5.2 12.2226 57.75
      vertex 3 12.2226 57.75
    endloop
  endfacet
  facet normal 0 0 1
    outer loop
      vertex 3 12.15 57.75
      vertex 5.2 12.15 57.75
      vertex 3 12.2226 57.75
    endloop
  endfacet
  facet normal -1 0 -1.77321e-016
    outer loop
      vertex 5.2 38.5774 56.365
      vertex 5.2 38.0015 53.6555
      vertex 5.2 38.5774 57.75
    endloop
  endfacet
  facet normal -1 0 -1.77321e-016
    outer loop
      vertex 5.2 38.5774 57.75
      vertex 5.2 38.0015 53.6555
      vertex 5.2 36.8748 51.125
    endloop
  endfacet
  facet normal -1 0 -1.77321e-016
    outer loop
      vertex 5.2 38.5774 57.75
      vertex 5.2 36.8748 51.125
      vertex 5.2 35.2467 48.884
    endloop
  endfacet
  facet normal -1 0 -1.77321e-016
    outer loop
      vertex 5.2 38.5774 57.75
      vertex 5.2 35.2467 48.884
      vertex 5.2 33.1882 47.0305
    endloop
  endfacet
  facet normal -1 0 -1.77321e-016
    outer loop
      vertex 5.2 38.5774 57.75
      vertex 5.2 33.1882 47.0305
      vertex 5.2 30.7893 45.6455
    endloop
  endfacet
  facet normal -1 0 -1.77321e-016
    outer loop
      vertex 5.2 38.5774 57.75
      vertex 5.2 30.7893 45.6455
      vertex 5.2 28.1548 44.7895
    endloop
  endfacet
  facet normal -1 0 -1.77321e-016
    outer loop
      vertex 5.2 38.5774 57.75
      vertex 5.2 28.1548 44.7895
      vertex 5.2 25.4 44.5
    endloop
  endfacet
  facet normal -1 0 -1.77321e-016
    outer loop
      vertex 5.2 38.5774 57.75
      vertex 5.2 25.4 44.5
      vertex 5.2 22.6452 44.7895
    endloop
  endfacet
  facet normal -1 0 -1.77321e-016
    outer loop
      vertex 5.2 38.5774 57.75
      vertex 5.2 22.6452 44.7895
      vertex 5.2 20.0107 45.6455
    endloop
  endfacet
  facet normal -1 0 -1.77321e-016
    outer loop
      vertex 5.2 38.5774 57.75
      vertex 5.2 20.0107 45.6455
      vertex 5.2 17.6118 47.0305
    endloop
  endfacet
  facet normal -1 0 -1.77321e-016
    outer loop
      vertex 5.2 38.5774 57.75
      vertex 5.2 17.6118 47.0305
      vertex 5.2 15.5533 48.884
    endloop
  endfacet
  facet normal -1 0 -1.77321e-016
    outer loop
      vertex 5.2 38.5774 57.75
      vertex 5.2 15.5533 48.884
      vertex 5.2 13.9252 51.125
    endloop
  endfacet
  facet normal -1 0 -1.77321e-016
    outer loop
      vertex 5.2 38.5774 57.75
      vertex 5.2 13.9252 51.125
      vertex 5.2 12.7985 53.6555
    endloop
  endfacet
  facet normal -1 0 -1.77321e-016
    outer loop
      vertex 5.2 38.5774 57.75
      vertex 5.2 12.7985 53.6555
      vertex 5.2 12.2226 56.365
    endloop
  endfacet
  facet normal -1 0 -1.77321e-016
    outer loop
      vertex 5.2 38.5774 57.75
      vertex 5.2 12.2226 56.365
      vertex 5.2 12.2226 57.75
    endloop
  endfacet
  facet normal 0 -1 0
    outer loop
      vertex 3 38.5774 56.365
      vertex 5.2 38.5774 56.365
      vertex 5.2 38.5774 57.75
    endloop
  endfacet
  facet normal 0 -1 0
    outer loop
      vertex 5.2 38.5774 57.75
      vertex 3 38.5774 57.75
      vertex 3 38.5774 56.365
    endloop
  endfacet
  facet normal 0 0 1
    outer loop
      vertex 5.2 38.5774 57.75
      vertex 5.2 38.65 57.75
      vertex 3 38.65 57.75
    endloop
  endfacet
  facet normal 0 0 1
    outer loop
      vertex 3 38.5774 57.75
      vertex 5.2 38.5774 57.75
      vertex 3 38.65 57.75
    endloop
  endfacet
  facet normal -4.61656e-017 -0.978148 0.207912
    outer loop
      vertex 3 38.0015 53.6555
      vertex 5.2 38.0015 53.6555
      vertex 5.2 38.5774 56.365
    endloop
  endfacet
  facet normal -4.61656e-017 -0.978148 0.207912
    outer loop
      vertex 3 38.5774 56.365
      vertex 3 38.0015 53.6555
      vertex 5.2 38.5774 56.365
    endloop
  endfacet
  facet normal -9.03137e-017 -0.913546 0.406737
    outer loop
      vertex 3 36.8748 51.125
      vertex 5.2 36.8748 51.125
      vertex 5.2 38.0015 53.6555
    endloop
  endfacet
  facet normal -9.03137e-017 -0.913546 0.406737
    outer loop
      vertex 3 38.0015 53.6555
      vertex 3 36.8748 51.125
      vertex 5.2 38.0015 53.6555
    endloop
  endfacet
  facet normal -1.30515e-016 -0.809017 0.587785
    outer loop
      vertex 3 35.2467 48.884
      vertex 5.2 35.2467 48.884
      vertex 5.2 36.8748 51.125
    endloop
  endfacet
  facet normal -1.30515e-016 -0.809017 0.587785
    outer loop
      vertex 3 36.8748 51.125
      vertex 3 35.2467 48.884
      vertex 5.2 36.8748 51.125
    endloop
  endfacet
  facet normal -1.65011e-016 -0.669131 0.743145
    outer loop
      vertex 3 33.1882 47.0305
      vertex 5.2 33.1882 47.0305
      vertex 5.2 35.2467 48.884
    endloop
  endfacet
  facet normal -1.65011e-016 -0.669131 0.743145
    outer loop
      vertex 3 35.2467 48.884
      vertex 3 33.1882 47.0305
      vertex 5.2 35.2467 48.884
    endloop
  endfacet
  facet normal -1.92296e-016 -0.5 0.866025
    outer loop
      vertex 3 30.7893 45.6455
      vertex 5.2 30.7893 45.6455
      vertex 5.2 33.1882 47.0305
    endloop
  endfacet
  facet normal -1.92296e-016 -0.5 0.866025
    outer loop
      vertex 3 33.1882 47.0305
      vertex 3 30.7893 45.6455
      vertex 5.2 33.1882 47.0305
    endloop
  endfacet
  facet normal -2.11177e-016 -0.309017 0.951056
    outer loop
      vertex 3 28.1548 44.7895
      vertex 5.2 28.1548 44.7895
      vertex 5.2 30.7893 45.6455
    endloop
  endfacet
  facet normal -2.11177e-016 -0.309017 0.951056
    outer loop
      vertex 3 30.7893 45.6455
      vertex 3 28.1548 44.7895
      vertex 5.2 30.7893 45.6455
    endloop
  endfacet
  facet normal -2.20828e-016 -0.104528 0.994522
    outer loop
      vertex 3 25.4 44.5
      vertex 5.2 25.4 44.5
      vertex 5.2 28.1548 44.7895
    endloop
  endfacet
  facet normal -2.20828e-016 -0.104528 0.994522
    outer loop
      vertex 3 28.1548 44.7895
      vertex 3 25.4 44.5
      vertex 5.2 28.1548 44.7895
    endloop
  endfacet
  facet normal -2.20828e-016 0.104528 0.994522
    outer loop
      vertex 5.2 22.6452 44.7895
      vertex 5.2 25.4 44.5
      vertex 3 25.4 44.5
    endloop
  endfacet
  facet normal -2.20828e-016 0.104528 0.994522
    outer loop
      vertex 3 22.6452 44.7895
      vertex 5.2 22.6452 44.7895
      vertex 3 25.4 44.5
    endloop
  endfacet
  facet normal -2.11177e-016 0.309017 0.951056
    outer loop
      vertex 5.2 20.0107 45.6455
      vertex 5.2 22.6452 44.7895
      vertex 3 22.6452 44.7895
    endloop
  endfacet
  facet normal -2.11177e-016 0.309017 0.951056
    outer loop
      vertex 3 20.0107 45.6455
      vertex 5.2 20.0107 45.6455
      vertex 3 22.6452 44.7895
    endloop
  endfacet
  facet normal -1.92296e-016 0.5 0.866025
    outer loop
      vertex 5.2 17.6118 47.0305
      vertex 5.2 20.0107 45.6455
      vertex 3 20.0107 45.6455
    endloop
  endfacet
  facet normal -1.92296e-016 0.5 0.866025
    outer loop
      vertex 3 17.6118 47.0305
      vertex 5.2 17.6118 47.0305
      vertex 3 20.0107 45.6455
    endloop
  endfacet
  facet normal -1.65011e-016 0.669131 0.743145
    outer loop
      vertex 5.2 15.5533 48.884
      vertex 5.2 17.6118 47.0305
      vertex 3 17.6118 47.0305
    endloop
  endfacet
  facet normal -1.65011e-016 0.669131 0.743145
    outer loop
      vertex 3 15.5533 48.884
      vertex 5.2 15.5533 48.884
      vertex 3 17.6118 47.0305
    endloop
  endfacet
  facet normal -1.30515e-016 0.809017 0.587785
    outer loop
      vertex 5.2 15.5533 48.884
      vertex 3 15.5533 48.884
      vertex 5.2 13.9252 51.125
    endloop
  endfacet
  facet normal -1.30515e-016 0.809017 0.587785
    outer loop
      vertex 5.2 13.9252 51.125
      vertex 3 15.5533 48.884
      vertex 3 13.9252 51.125
    endloop
  endfacet
  facet normal -9.03137e-017 0.913546 0.406737
    outer loop
      vertex 5.2 13.9252 51.125
      vertex 3 13.9252 51.125
      vertex 5.2 12.7985 53.6555
    endloop
  endfacet
  facet normal -9.03137e-017 0.913546 0.406737
    outer loop
      vertex 5.2 12.7985 53.6555
      vertex 3 13.9252 51.125
      vertex 3 12.7985 53.6555
    endloop
  endfacet
  facet normal -4.61656e-017 0.978148 0.207912
    outer loop
      vertex 5.2 12.7985 53.6555
      vertex 3 12.7985 53.6555
      vertex 5.2 12.2226 56.365
    endloop
  endfacet
  facet normal -4.61656e-017 0.978148 0.207912
    outer loop
      vertex 5.2 12.2226 56.365
      vertex 3 12.7985 53.6555
      vertex 3 12.2226 56.365
    endloop
  endfacet
  facet normal 0 -1 0
    outer loop
      vertex 8.199 32 26.1895
      vertex 14.751 32 26.1895
      vertex 14.751 32 33.8105
    endloop
  endfacet
  facet normal 0 -1 0
    outer loop
      vertex 8.199 32 33.8105
      vertex 8.199 32 26.1895
      vertex 14.751 32 33.8105
    endloop
  endfacet
  facet normal -1.92296e-016 -0.5 0.866025
    outer loop
      vertex 8.199 25.4 22.379
      vertex 14.751 25.4 22.379
      vertex 14.751 32 26.1895
    endloop
  endfacet
  facet normal -1.92296e-016 -0.5 0.866025
    outer loop
      vertex 8.199 32 26.1895
      vertex 8.199 25.4 22.379
      vertex 14.751 32 26.1895
    endloop
  endfacet
  facet normal -1.92296e-016 0.5 0.866025
    outer loop
      vertex 14.751 18.8 26.1895
      vertex 14.751 25.4 22.379
      vertex 8.199 25.4 22.379
    endloop
  endfacet
  facet normal -1.92296e-016 0.5 0.866025
    outer loop
      vertex 8.199 18.8 26.1895
      vertex 14.751 18.8 26.1895
      vertex 8.199 25.4 22.379
    endloop
  endfacet
  facet normal 0 1 0
    outer loop
      vertex 14.751 18.8 26.1895
      vertex 8.199 18.8 26.1895
      vertex 14.751 18.8 33.8105
    endloop
  endfacet
  facet normal 0 1 0
    outer loop
      vertex 14.751 18.8 33.8105
      vertex 8.199 18.8 26.1895
      vertex 8.199 18.8 33.8105
    endloop
  endfacet
  facet normal -1.11022e-016 0.866025 0.5
    outer loop
      vertex 14.751 18.8 41.4315
      vertex 14.749 18.8 41.4315
      vertex 8.199 18.8 41.4315
    endloop
  endfacet
  facet normal 1 0 1.77321e-016
    outer loop
      vertex 8.199 18.8 33.8105
      vertex 8.199 25.4 37.621
      vertex 8.199 18.8 41.4315
    endloop
  endfacet
  facet normal 1 0 1.77321e-016
    outer loop
      vertex 8.199 25.4 37.621
      vertex 8.199 32 33.8105
      vertex 8.199 18.8 41.4315
    endloop
  endfacet
  facet normal 1 0 1.77321e-016
    outer loop
      vertex 8.199 32 33.8105
      vertex 8.199 32 41.4315
      vertex 8.199 18.8 41.4315
    endloop
  endfacet
  facet normal 1 0 1.77321e-016
    outer loop
      vertex 8.199 32 41.4315
      vertex 8.199 25.4 45.242
      vertex 8.199 18.8 41.4315
    endloop
  endfacet
  facet normal -1.92296e-016 0.5 0.866025
    outer loop
      vertex 8.199 18.8 33.8105
      vertex 14.751 18.8 33.8105
      vertex 14.749 18.8 33.8105
    endloop
  endfacet
  facet normal -1 0 -1.77321e-016
    outer loop
      vertex 14.751 18.8 33.8105
      vertex 14.751 21.7627 32.1
      vertex 14.751 21.4056 31.2979
    endloop
  endfacet
  facet normal -1 0 -1.77321e-016
    outer loop
      vertex 14.751 21.4056 31.2979
      vertex 14.751 21.223 30.439
      vertex 14.751 18.8 33.8105
    endloop
  endfacet
  facet normal -1 0 -1.77321e-016
    outer loop
      vertex 14.751 21.223 30.439
      vertex 14.751 21.223 29.561
      vertex 14.751 18.8 33.8105
    endloop
  endfacet
  facet normal -1 0 -1.77321e-016
    outer loop
      vertex 14.751 21.223 29.561
      vertex 14.751 21.4056 28.7021
      vertex 14.751 18.8 33.8105
    endloop
  endfacet
  facet normal -1 0 -1.77321e-016
    outer loop
      vertex 14.751 21.4056 28.7021
      vertex 14.751 21.7627 27.9
      vertex 14.751 18.8 33.8105
    endloop
  endfacet
  facet normal -1 0 -1.77321e-016
    outer loop
      vertex 14.751 22.2788 27.1897
      vertex 14.751 25.4 22.379
      vertex 14.751 21.7627 27.9
    endloop
  endfacet
  facet normal -1 0 -1.77321e-016
    outer loop
      vertex 14.751 22.9313 26.6021
      vertex 14.751 25.4 22.379
      vertex 14.751 22.2788 27.1897
    endloop
  endfacet
  facet normal -1 0 -1.77321e-016
    outer loop
      vertex 14.751 23.6917 26.1631
      vertex 14.751 25.4 22.379
      vertex 14.751 22.9313 26.6021
    endloop
  endfacet
  facet normal -1 0 -1.77321e-016
    outer loop
      vertex 14.751 24.5268 25.8918
      vertex 14.751 25.4 22.379
      vertex 14.751 23.6917 26.1631
    endloop
  endfacet
  facet normal -1 0 -1.77321e-016
    outer loop
      vertex 14.751 26.2732 25.8918
      vertex 14.751 32 26.1895
      vertex 14.751 25.4 25.8
    endloop
  endfacet
  facet normal -1 0 -1.77321e-016
    outer loop
      vertex 14.751 27.1083 26.1631
      vertex 14.751 32 26.1895
      vertex 14.751 26.2732 25.8918
    endloop
  endfacet
  facet normal -1 0 -1.77321e-016
    outer loop
      vertex 14.751 27.8687 26.6021
      vertex 14.751 32 26.1895
      vertex 14.751 27.1083 26.1631
    endloop
  endfacet
  facet normal -1 0 -1.77321e-016
    outer loop
      vertex 14.751 28.5212 27.1897
      vertex 14.751 32 26.1895
      vertex 14.751 27.8687 26.6021
    endloop
  endfacet
  facet normal -1 0 -1.77321e-016
    outer loop
      vertex 14.751 29.3944 28.7021
      vertex 14.751 32 33.8105
      vertex 14.751 29.0373 27.9
    endloop
  endfacet
  facet normal -1 0 -1.77321e-016
    outer loop
      vertex 14.751 29.577 29.561
      vertex 14.751 32 33.8105
      vertex 14.751 29.3944 28.7021
    endloop
  endfacet
  facet normal -1 0 -1.77321e-016
    outer loop
      vertex 14.751 29.577 30.439
      vertex 14.751 32 33.8105
      vertex 14.751 29.577 29.561
    endloop
  endfacet
  facet normal -1 0 -1.77321e-016
    outer loop
      vertex 14.751 29.3944 31.2979
      vertex 14.751 32 33.8105
      vertex 14.751 29.577 30.439
    endloop
  endfacet
  facet normal -1 0 -1.77321e-016
    outer loop
      vertex 14.751 29.0373 32.1
      vertex 14.751 32 33.8105
      vertex 14.751 29.3944 31.2979
    endloop
  endfacet
  facet normal -1 0 -1.77321e-016
    outer loop
      vertex 14.751 25.4 22.379
      vertex 14.751 25.4 25.8
      vertex 14.751 32 26.1895
    endloop
  endfacet
  facet normal -1 0 -1.77321e-016
    outer loop
      vertex 14.751 29.0373 27.9
      vertex 14.751 32 26.1895
      vertex 14.751 28.5212 27.1897
    endloop
  endfacet
  facet normal -1 0 -1.77321e-016
    outer loop
      vertex 14.751 18.8 26.1895
      vertex 14.751 21.7627 27.9
      vertex 14.751 25.4 22.379
    endloop
  endfacet
  facet normal -1 0 -1.77321e-016
    outer loop
      vertex 14.751 25.4 25.8
      vertex 14.751 25.4 22.379
      vertex 14.751 24.5268 25.8918
    endloop
  endfacet
  facet normal -1 0 -1.77321e-016
    outer loop
      vertex 14.751 21.7627 27.9
      vertex 14.751 18.8 26.1895
      vertex 14.751 18.8 33.8105
    endloop
  endfacet
  facet normal -1 0 -1.77321e-016
    outer loop
      vertex 14.751 32 26.1895
      vertex 14.751 29.0373 27.9
      vertex 14.751 32 33.8105
    endloop
  endfacet
  facet normal -1.92296e-016 -0.5 0.866025
    outer loop
      vertex 14.751 32 33.8105
      vertex 8.199 32 33.8105
      vertex 14.749 32 33.8105
    endloop
  endfacet
  facet normal -1.11022e-016 -0.866025 0.5
    outer loop
      vertex 14.751 32 41.4315
      vertex 8.199 32 41.4315
      vertex 14.749 32 41.4315
    endloop
  endfacet
  facet normal 1.92296e-016 0.5 -0.866025
    outer loop
      vertex 14.751 18.8 41.4315
      vertex 8.199 18.8 41.4315
      vertex 14.751 25.4 45.242
    endloop
  endfacet
  facet normal 1.92296e-016 0.5 -0.866025
    outer loop
      vertex 14.751 25.4 45.242
      vertex 8.199 18.8 41.4315
      vertex 8.199 25.4 45.242
    endloop
  endfacet
  facet normal 1.92296e-016 -0.5 -0.866025
    outer loop
      vertex 14.751 32 41.4315
      vertex 14.751 25.4 45.242
      vertex 8.199 32 41.4315
    endloop
  endfacet
  facet normal 1.92296e-016 -0.5 -0.866025
    outer loop
      vertex 8.199 32 41.4315
      vertex 14.751 25.4 45.242
      vertex 8.199 25.4 45.242
    endloop
  endfacet
endsolid OpenSCAD_Model
